<svg xmlns="http://www.w3.org/2000/svg" xmlns:xlink="http://www.w3.org/1999/xlink" version="1.1" x="0px" y="0px" viewBox="0 0 90 112.5" enable-background="new 0 0 90 90" xml:space="preserve"><g><path d="M-243.806-181.777c0.701,0,1.268-0.568,1.268-1.268c0-0.701-0.567-1.268-1.268-1.268h-3.87c-0.7,0-1.268,0.567-1.268,1.268   v7.716c0,0.7,0.568,1.268,1.268,1.268c0.701,0,1.269-0.568,1.269-1.268v-2.59h2.601c0.701,0,1.268-0.567,1.268-1.268   s-0.567-1.268-1.268-1.268h-2.601v-1.322H-243.806z"/><path d="M-237.343-184.313c-0.7,0-1.268,0.567-1.268,1.268v7.716c0,0.7,0.568,1.268,1.268,1.268c0.701,0,1.268-0.568,1.268-1.268   v-7.716C-236.075-183.746-236.642-184.313-237.343-184.313z"/><path d="M-225.211-184.313c-0.701,0-1.268,0.567-1.268,1.268v3.847l-3.378-4.598c-0.324-0.442-0.896-0.625-1.417-0.454   c-0.521,0.171-0.873,0.657-0.873,1.205v7.716c0,0.7,0.567,1.268,1.268,1.268s1.268-0.568,1.268-1.268v-3.848l3.378,4.598   c0.243,0.332,0.626,0.518,1.022,0.518c0.131,0,0.265-0.021,0.395-0.063c0.521-0.17,0.873-0.657,0.873-1.205v-7.716   C-223.943-183.746-224.511-184.313-225.211-184.313z"/><path d="M-214.878-181.777c0.701,0,1.269-0.568,1.269-1.268c0-0.701-0.568-1.268-1.269-1.268h-3.87   c-0.701,0-1.269,0.567-1.269,1.268v7.716c0,0.7,0.568,1.268,1.269,1.268h3.87c0.701,0,1.269-0.568,1.269-1.268   c0-0.701-0.568-1.269-1.269-1.269h-2.602v-1.321h2.602c0.701,0,1.269-0.567,1.269-1.268s-0.568-1.268-1.269-1.268h-2.602v-1.322   H-214.878z"/><path d="M-219.407-231.714v-0.672c0-0.701-0.567-1.268-1.268-1.268s-1.268,0.567-1.268,1.268v0.672   c0,0.701,0.567,1.269,1.268,1.269S-219.407-231.014-219.407-231.714z"/><path d="M-193.133-206.431l-5.896-17.285c-0.175-0.514-0.658-0.859-1.2-0.859c-0.542,0-1.025,0.345-1.2,0.859l-3.076,9.017   c-1.583-0.969-3.706-2.166-6.26-3.381c-0.731-1.683-1.684-3.224-2.727-4.438v-18.104c0-0.701-0.568-1.268-1.269-1.268h-4.643   v-4.912c0.362,0.271,0.564,0.712,0.844,1.325c0.517,1.132,1.298,2.844,3.804,2.844c0.7,0,1.268-0.568,1.268-1.268   c0-0.701-0.568-1.268-1.268-1.268c-0.841,0-1.004-0.282-1.497-1.361c-0.568-1.246-1.427-3.127-4.419-3.127   c-0.701,0-1.268,0.567-1.268,1.268v6.499h-4.41c-0.701,0-1.268,0.567-1.268,1.268v6.878h-20.725c-0.701,0-1.268,0.568-1.268,1.269   v12.146c-1.263,0.604-2.495,1.287-3.693,2.044c-1.492-4.672-4.972-8.978-7.735-8.978c-3.467,0-7.892,6.374-8.454,12.178   c-0.496,5.116,2.115,8.677,7.166,9.854v1.465c0,0.701,0.567,1.269,1.268,1.269c0.7,0,1.268-0.568,1.268-1.269v-1.464   c5.051-1.177,7.662-4.741,7.166-9.862c-0.018-0.182-0.05-0.366-0.076-0.548c3.243-2.173,6.758-3.732,10.487-4.646l-3.083,9.039   c-1.075-0.968-2.187-1.558-3.203-1.558c-3.467,0-7.892,6.374-8.454,12.178c-0.496,5.116,2.115,8.677,7.166,9.854v1.465   c0,0.701,0.567,1.268,1.268,1.268s1.268-0.567,1.268-1.268v-1.465c5.051-1.177,7.662-4.741,7.166-9.862   c-0.167-1.724-0.698-3.519-1.446-5.187h0.85v2.017c0,0.701,0.568,1.268,1.268,1.268c0.701,0,1.269-0.567,1.269-1.268v-2.017h4.692   c0.409,0,0.793-0.197,1.031-0.53c0.238-0.333,0.301-0.76,0.168-1.147l-4.653-13.642c4.138-0.34,8.521,0.026,13.071,1.09   c-0.763,1.307-1.401,2.761-1.839,4.244c-0.07-0.012-0.139-0.033-0.212-0.033c-0.542,0-1.025,0.345-1.2,0.858l-5.96,17.471   c-0.132,0.387-0.069,0.814,0.169,1.147c0.238,0.333,0.622,0.53,1.031,0.53h4.692v2.017c0,0.701,0.567,1.268,1.268,1.268   s1.268-0.567,1.268-1.268v-2.017h4.692c0.006,0,0.011,0,0.017,0c0.701,0,1.268-0.567,1.268-1.268c0-0.215-0.054-0.418-0.148-0.596   l-2.038-5.972c0.544,0.213,1.125,0.393,1.743,0.537v1.474c0,0.701,0.568,1.268,1.268,1.268c0.701,0,1.268-0.567,1.268-1.268v-1.464   c5.067-1.18,7.676-4.76,7.162-9.903c-0.056-0.556-0.156-1.116-0.278-1.677c1.746,0.91,3.2,1.765,4.322,2.466l-2.044,5.992   c-0.133,0.387-0.069,0.814,0.168,1.147c0.238,0.333,0.623,0.53,1.031,0.53h4.692v2.017c0,0.701,0.568,1.268,1.269,1.268   c0.7,0,1.268-0.567,1.268-1.268v-2.017h4.692c0.005,0,0.011,0,0.017,0c0.701,0,1.269-0.567,1.269-1.268   C-192.984-206.051-193.038-206.253-193.133-206.431z M-259.791-207.844v-2.903c0-0.7-0.568-1.268-1.268-1.268   c-0.701,0-1.268,0.568-1.268,1.268v2.903c-3.433-0.988-4.997-3.335-4.642-6.996c0.495-5.106,4.377-9.886,5.95-9.886   c1.544,0,5.392,4.958,5.869,9.878C-254.794-211.182-256.358-208.832-259.791-207.844z M-247.253-193.388v-2.903   c0-0.7-0.567-1.268-1.268-1.268s-1.268,0.568-1.268,1.268v2.903c-3.433-0.988-4.996-3.335-4.641-6.995   c0.494-5.106,4.376-9.886,5.95-9.886c1.544,0,5.392,4.958,5.868,9.878C-242.257-196.726-243.82-194.375-247.253-193.388z    M-238.147-208.359v-1.382c0-0.701-0.568-1.268-1.269-1.268c-0.7,0-1.268,0.567-1.268,1.268v1.382h-2.225   c-0.15-0.234-0.303-0.464-0.461-0.686l3.954-11.59l4.188,12.276H-238.147z M-237.75-223.606l-0.466-1.365   c-0.008-0.024-0.021-0.044-0.03-0.067c-0.018-0.042-0.035-0.084-0.057-0.125c-0.02-0.036-0.041-0.07-0.063-0.103   c-0.022-0.034-0.045-0.067-0.072-0.098c-0.027-0.033-0.056-0.064-0.086-0.094c-0.027-0.028-0.056-0.054-0.085-0.079   c-0.035-0.029-0.071-0.054-0.108-0.078c-0.03-0.021-0.061-0.04-0.093-0.058c-0.044-0.024-0.089-0.043-0.136-0.062   c-0.02-0.008-0.038-0.02-0.059-0.027c-0.011-0.004-0.022-0.004-0.033-0.008c-0.047-0.015-0.096-0.025-0.145-0.034   c-0.036-0.006-0.07-0.014-0.106-0.018c-0.041-0.004-0.082-0.004-0.123-0.004c-0.044,0-0.087,0-0.131,0.004   c-0.033,0.003-0.066,0.011-0.099,0.017c-0.051,0.009-0.102,0.02-0.152,0.035c-0.01,0.003-0.021,0.004-0.031,0.008   c-0.021,0.006-0.037,0.018-0.057,0.025c-0.048,0.02-0.095,0.04-0.14,0.064c-0.031,0.017-0.061,0.036-0.089,0.055   c-0.039,0.025-0.076,0.052-0.111,0.081c-0.029,0.024-0.056,0.05-0.083,0.076c-0.031,0.031-0.061,0.062-0.089,0.096   c-0.025,0.031-0.048,0.063-0.07,0.096c-0.023,0.034-0.045,0.069-0.065,0.105c-0.021,0.04-0.039,0.081-0.056,0.123   c-0.009,0.023-0.022,0.043-0.031,0.067l-0.642,1.88c-1.995,0.395-3.936,0.956-5.817,1.68v-9.796h3.718   c-0.007,0.051-0.016,0.102-0.016,0.154v0.672c0,0.701,0.567,1.268,1.268,1.268s1.268-0.567,1.268-1.268v-0.672   c0-0.053-0.009-0.103-0.016-0.154h2.871c-0.007,0.051-0.016,0.102-0.016,0.154v0.672c0,0.701,0.567,1.268,1.268,1.268   s1.268-0.567,1.268-1.268v-0.672c0-0.053-0.009-0.103-0.016-0.154h2.871c-0.007,0.051-0.016,0.102-0.016,0.154v0.672   c0,0.701,0.567,1.268,1.268,1.268s1.268-0.567,1.268-1.268v-0.672c0-0.053-0.009-0.103-0.016-0.154h3.75   c0.701,0,1.268-0.568,1.268-1.268v-6.878h3.178c-0.024,0.097-0.04,0.196-0.04,0.3v0.672c0,0.701,0.567,1.268,1.268,1.268   s1.268-0.567,1.268-1.268v-0.672c0-0.104-0.016-0.203-0.04-0.3h3.417v14.695c-0.59-0.311-1.177-0.496-1.736-0.496   c-0.011,0-0.022,0-0.034,0c-1.452,0-3.062,1.141-4.492,2.873C-227.676-223.647-232.867-224.09-237.75-223.606z M-224.622-198.37   v-1.383c0-0.7-0.567-1.268-1.268-1.268s-1.268,0.568-1.268,1.268v1.383h-2.92l4.188-12.276l4.188,12.276H-224.622z    M-216.552-205.736v-2.904c0-0.7-0.567-1.268-1.268-1.268c-0.7,0-1.268,0.568-1.268,1.268v2.897   c-1.127-0.327-2.068-0.795-2.787-1.414c-0.061-0.052-0.125-0.095-0.191-0.134l-1.691-4.957c0.246-5,4.283-10.371,5.971-10.371   c0.003,0,0.005,0,0.009,0c1.538,0,5.373,4.932,5.864,9.845C-211.545-209.088-213.107-206.727-216.552-205.736z M-198.961-207.104   v-1.382c0-0.701-0.568-1.268-1.268-1.268c-0.701,0-1.269,0.567-1.269,1.268v1.382h-2.919l4.188-12.275l4.188,12.275H-198.961z"/></g><path d="M-63.206,18.721c-0.421-0.038-0.854,0.127-1.132,0.488c-0.427,0.555-0.324,1.35,0.23,1.777l0.119,0.092  c0.229,0.176,0.501,0.264,0.774,0.264c0.272,0,0.544-0.087,0.771-0.262l0.118-0.09c0.555-0.426,0.66-1.223,0.233-1.779  C-62.364,18.856-62.8,18.688-63.206,18.721z"/><path d="M-63.198,13.079c-0.042-0.001-0.083,0.001-0.125,0.004c-1.599,0.066-3.144,0.834-4.594,2.283  c-0.495,0.495-0.495,1.298,0,1.793c0.496,0.496,1.298,0.496,1.794,0.001c0.995-0.995,1.983-1.516,2.939-1.544  c0.955,0.028,1.943,0.549,2.939,1.544c0.248,0.247,0.572,0.37,0.896,0.37s0.649-0.123,0.896-0.371c0.496-0.495,0.496-1.298,0-1.793  c-1.486-1.486-3.072-2.256-4.716-2.286v-0.001C-63.177,13.079-63.186,13.08-63.198,13.079z"/><path d="M-62.973,6.49c-0.041-0.004-0.082-0.006-0.124-0.006h-0.174c-0.042,0-0.083,0.002-0.124,0.006  c-3.343,0.112-6.616,1.748-9.734,4.865c-0.495,0.496-0.495,1.298,0,1.794c0.496,0.495,1.298,0.495,1.794,0  c2.688-2.688,5.43-4.075,8.151-4.127c2.722,0.052,5.463,1.44,8.151,4.127c0.248,0.247,0.572,0.371,0.896,0.371  c0.325,0,0.649-0.124,0.896-0.371c0.496-0.496,0.496-1.298,0-1.794C-56.356,8.238-59.63,6.603-62.973,6.49z"/><path d="M-63.198-0.028c-0.033,0-0.063,0-0.096,0.002c-5.126,0.107-10.167,2.603-14.984,7.42c-0.495,0.496-0.495,1.298,0,1.793  c0.496,0.495,1.298,0.495,1.794,0c4.356-4.357,8.831-6.604,13.301-6.679c4.47,0.075,8.944,2.322,13.301,6.679  c0.248,0.248,0.572,0.372,0.896,0.372c0.325,0,0.649-0.124,0.896-0.372c0.496-0.496,0.496-1.298,0-1.793  c-4.846-4.847-9.919-7.344-15.077-7.423l0,0C-63.18-0.029-63.189-0.029-63.198-0.028z"/><path d="M-76.211,35.375c0.7,0,1.269-0.567,1.269-1.268c0-0.701-0.568-1.268-1.269-1.268h-3.868c-0.7,0-1.269,0.566-1.269,1.268  v7.715c0,0.701,0.568,1.269,1.269,1.269s1.268-0.567,1.268-1.269v-2.59h2.601c0.7,0,1.269-0.566,1.269-1.268  c0-0.7-0.568-1.269-1.269-1.269h-2.601v-1.321H-76.211z"/><path d="M-46.287,35.375c0.7,0,1.269-0.567,1.269-1.268c0-0.701-0.568-1.268-1.269-1.268h-3.87c-0.7,0-1.269,0.566-1.269,1.268  v7.715c0,0.701,0.568,1.269,1.269,1.269h3.87c0.7,0,1.269-0.567,1.269-1.269c0-0.699-0.568-1.268-1.269-1.268h-2.603v-1.322h2.603  c0.7,0,1.269-0.566,1.269-1.268c0-0.7-0.568-1.269-1.269-1.269h-2.603v-1.321H-46.287z"/><path d="M-55.773,35.375c0.7,0,1.269-0.567,1.269-1.268c0-0.701-0.568-1.268-1.269-1.268h-3.87c-0.7,0-1.269,0.566-1.269,1.268  v7.715c0,0.701,0.568,1.269,1.269,1.269h3.87c0.7,0,1.269-0.567,1.269-1.269c0-0.699-0.568-1.268-1.269-1.268h-2.603v-1.322h2.603  c0.7,0,1.269-0.566,1.269-1.268c0-0.7-0.568-1.269-1.269-1.269h-2.603v-1.321H-55.773z"/><path d="M-66.849,38.825c1.239-0.358,2.098-0.926,2.505-1.705c0.404-0.775,0.335-1.652-0.191-2.409  c-1.014-1.458-3.449-2.173-6.22-1.823c-0.017,0.003-0.031,0.009-0.048,0.012c-0.043,0.007-0.084,0.018-0.126,0.029  c-0.04,0.011-0.08,0.021-0.118,0.037c-0.038,0.014-0.074,0.031-0.11,0.049c-0.038,0.02-0.076,0.039-0.111,0.061  c-0.033,0.021-0.063,0.045-0.094,0.068c-0.034,0.025-0.068,0.052-0.099,0.082c-0.028,0.025-0.054,0.055-0.079,0.084  c-0.028,0.031-0.056,0.062-0.08,0.096c-0.023,0.033-0.043,0.066-0.063,0.1c-0.021,0.037-0.042,0.072-0.06,0.11  c-0.017,0.036-0.03,0.073-0.043,0.11c-0.014,0.041-0.028,0.082-0.038,0.125c-0.009,0.037-0.015,0.074-0.021,0.112  c-0.007,0.046-0.012,0.091-0.014,0.138c0,0.016-0.005,0.029-0.005,0.046v7.716c0,0.7,0.568,1.268,1.269,1.268  s1.268-0.567,1.268-1.268v-1.821l3.242,2.783c0.24,0.206,0.534,0.306,0.826,0.306c0.357,0,0.712-0.149,0.963-0.441  c0.456-0.531,0.396-1.332-0.136-1.789L-66.849,38.825z M-69.327,36.687v-1.343c1.394,0.016,2.309,0.414,2.618,0.705  C-66.997,36.253-67.782,36.569-69.327,36.687z"/><path d="M-35.474-2.912l-26.954-20.042c-0.449-0.334-1.064-0.334-1.514,0L-90.895-2.912c-0.562,0.417-0.679,1.212-0.261,1.774  c0.42,0.562,1.212,0.68,1.775,0.261l5.062-3.764V25.96c0,0.7,0.568,1.269,1.269,1.269s1.268-0.568,1.268-1.269V-6.369  c0-0.05-0.009-0.098-0.015-0.147l18.612-13.841l18.616,13.842c-0.006,0.048-0.015,0.096-0.015,0.146V25.96  c0,0.7,0.568,1.269,1.269,1.269c0.699,0,1.268-0.568,1.268-1.269v-30.6l5.062,3.763c0.227,0.169,0.491,0.25,0.755,0.25  c0.388,0,0.77-0.177,1.019-0.511C-34.794-1.7-34.911-2.494-35.474-2.912z"/><g><path d="M315.146,125.692c0.7,0,1.269-0.567,1.269-1.268c0-0.701-0.568-1.269-1.269-1.269h-3.868c-0.7,0-1.269,0.567-1.269,1.269   v7.715c0,0.701,0.568,1.27,1.269,1.27c0.699,0,1.268-0.568,1.268-1.27v-2.59h2.601c0.7,0,1.269-0.566,1.269-1.268   c0-0.7-0.568-1.268-1.269-1.268h-2.601v-1.322H315.146z"/><path d="M345.069,129.55c0.7,0,1.268-0.566,1.268-1.268c0-0.7-0.567-1.268-1.268-1.268h-2.603v-1.322h2.603   c0.7,0,1.268-0.567,1.268-1.268c0-0.701-0.567-1.269-1.268-1.269h-3.87c-0.7,0-1.269,0.567-1.269,1.269v7.715   c0,0.701,0.568,1.27,1.269,1.27h3.87c0.7,0,1.268-0.568,1.268-1.27c0-0.699-0.567-1.268-1.268-1.268h-2.603v-1.322H345.069z"/><path d="M335.583,125.692c0.7,0,1.269-0.567,1.269-1.268c0-0.701-0.568-1.269-1.269-1.269h-3.87c-0.7,0-1.269,0.567-1.269,1.269   v7.715c0,0.701,0.568,1.27,1.269,1.27h3.87c0.7,0,1.269-0.568,1.269-1.27c0-0.699-0.568-1.268-1.269-1.268h-2.603v-1.322h2.603   c0.7,0,1.269-0.566,1.269-1.268c0-0.7-0.568-1.268-1.269-1.268h-2.603v-1.322H335.583z"/><path d="M324.508,129.143c1.24-0.359,2.098-0.927,2.505-1.706c0.405-0.775,0.336-1.653-0.191-2.41   c-1.016-1.457-3.456-2.172-6.22-1.82c-0.015,0.001-0.03,0.007-0.045,0.01c-0.045,0.007-0.089,0.019-0.132,0.03   c-0.038,0.011-0.076,0.021-0.114,0.036c-0.039,0.014-0.076,0.032-0.113,0.051s-0.073,0.037-0.107,0.059   c-0.035,0.021-0.064,0.045-0.096,0.068c-0.035,0.027-0.068,0.052-0.098,0.08c-0.028,0.027-0.055,0.057-0.081,0.086   c-0.028,0.032-0.055,0.062-0.079,0.096c-0.023,0.033-0.043,0.066-0.062,0.102c-0.021,0.035-0.043,0.07-0.06,0.109   c-0.017,0.035-0.03,0.072-0.043,0.109c-0.015,0.041-0.028,0.082-0.038,0.125c-0.01,0.037-0.015,0.074-0.021,0.113   c-0.007,0.045-0.012,0.09-0.014,0.137c0,0.016-0.005,0.03-0.005,0.046v7.716c0,0.701,0.568,1.268,1.269,1.268   s1.268-0.566,1.268-1.268v-1.822l3.243,2.785c0.239,0.205,0.533,0.305,0.826,0.305c0.356,0,0.711-0.149,0.962-0.441   c0.456-0.531,0.396-1.332-0.137-1.789L324.508,129.143z M322.029,127.003v-1.342c1.393,0.018,2.309,0.415,2.619,0.705   C324.361,126.571,323.575,126.886,322.029,127.003z"/><path d="M314.923,117.689h26.504c2.021,0,3.664-1.644,3.664-3.664V71.262c0-2.021-1.644-3.665-3.664-3.665h-26.504   c-2.021,0-3.666,1.644-3.666,3.665v42.764C311.257,116.046,312.901,117.689,314.923,117.689z M313.793,71.262   c0-0.623,0.508-1.129,1.13-1.129h26.504c0.622,0,1.128,0.506,1.128,1.129v42.764c0,0.622-0.506,1.128-1.128,1.128h-26.504   c-0.622,0-1.13-0.506-1.13-1.128V71.262z"/><path d="M316.285,109.831h23.604c0.7,0,1.268-0.567,1.268-1.268V72.713c0-0.701-0.567-1.268-1.268-1.268h-23.604   c-0.7,0-1.269,0.566-1.269,1.268v35.851C315.017,109.264,315.585,109.831,316.285,109.831z M317.553,73.981h21.068v33.314h-21.068   V73.981z"/><path d="M328.174,110.458c-1.095,0-1.986,0.892-1.986,1.987c0,1.097,0.892,1.988,1.986,1.988c1.097,0,1.988-0.892,1.988-1.988   C330.162,111.35,329.271,110.458,328.174,110.458z M328.174,112.994c-0.302,0-0.548-0.245-0.548-0.549   c0-0.302,0.246-0.548,0.548-0.548c0.304,0,0.55,0.246,0.55,0.548C328.724,112.749,328.478,112.994,328.174,112.994z"/></g><g><path d="M-211.936-104.74h-74.016c-0.701,0-1.269,0.568-1.269,1.269v26.064c0,0.7,0.567,1.269,1.269,1.269h74.016   c0.7,0,1.268-0.568,1.268-1.269v-26.064C-210.668-104.171-211.235-104.74-211.936-104.74z M-213.204-78.674h-71.479v-23.528h71.479   V-78.674z"/><path d="M-281.234-97.132h64.815c0.7,0,1.269-0.567,1.269-1.268s-0.568-1.269-1.269-1.269h-64.815   c-0.701,0-1.269,0.568-1.269,1.269S-281.936-97.132-281.234-97.132z"/><path d="M-281.234-91.824h64.815c0.7,0,1.269-0.567,1.269-1.268s-0.568-1.269-1.269-1.269h-64.815   c-0.701,0-1.269,0.568-1.269,1.269S-281.936-91.824-281.234-91.824z"/><path d="M-281.234-86.516h64.815c0.7,0,1.269-0.568,1.269-1.269s-0.568-1.268-1.269-1.268h-64.815   c-0.701,0-1.269,0.567-1.269,1.268S-281.936-86.516-281.234-86.516z"/><path d="M-216.419-83.746h-2.255c-0.699,0-1.268,0.568-1.268,1.269c0,0.699,0.568,1.268,1.268,1.268h2.255   c0.7,0,1.269-0.568,1.269-1.268C-215.15-83.177-215.719-83.746-216.419-83.746z"/><path d="M-223.816-83.746h-0.458c-0.7,0-1.269,0.568-1.269,1.269c0,0.699,0.568,1.268,1.269,1.268h0.458   c0.701,0,1.268-0.568,1.268-1.268C-222.549-83.177-223.115-83.746-223.816-83.746z"/><path d="M-229.77-83.746h-0.457c-0.701,0-1.27,0.568-1.27,1.269c0,0.699,0.568,1.268,1.27,1.268h0.457   c0.701,0,1.268-0.568,1.268-1.268C-228.502-83.177-229.068-83.746-229.77-83.746z"/><path d="M-243.312-115.347c-0.494,0.496-0.494,1.298,0,1.794c0.248,0.247,0.572,0.371,0.896,0.371c0.325,0,0.649-0.124,0.897-0.371   c2.922-2.923,1.255-5.755,0.038-7.822c-1.449-2.464-2.11-3.846-0.038-5.916c0.495-0.496,0.495-1.298,0-1.794   c-0.495-0.495-1.298-0.495-1.794,0c-3.556,3.556-1.705,6.701-0.354,8.996C-242.268-117.713-241.904-116.755-243.312-115.347z"/><path d="M-220.629-115.862c1.398,2.376,1.762,3.334,0.354,4.742c-0.495,0.495-0.495,1.298,0,1.793   c0.247,0.248,0.571,0.372,0.896,0.372s0.649-0.124,0.896-0.372c2.923-2.923,1.255-5.754,0.038-7.821   c-1.449-2.464-2.109-3.846-0.038-5.917c0.495-0.495,0.495-1.298,0-1.793s-1.298-0.495-1.793,0   C-223.831-121.303-221.98-118.157-220.629-115.862z"/><path d="M-254.451-122.11c-0.496,0.495-0.496,1.298,0,1.793c0.248,0.248,0.572,0.371,0.896,0.371s0.648-0.123,0.896-0.371   c2.922-2.923,1.256-5.755,0.039-7.822c-1.45-2.463-2.111-3.846-0.039-5.916c0.496-0.495,0.496-1.298,0-1.793   c-0.495-0.496-1.297-0.496-1.793,0c-3.557,3.555-1.705,6.7-0.354,8.995C-253.406-124.476-253.043-123.519-254.451-122.11z"/><path d="M-264.745-117.883c-0.495,0.495-0.495,1.298,0,1.793c0.248,0.248,0.572,0.372,0.897,0.372c0.324,0,0.648-0.124,0.896-0.372   c2.922-2.922,1.255-5.754,0.038-7.821c-1.45-2.464-2.11-3.846-0.038-5.916c0.494-0.496,0.494-1.298,0-1.794   c-0.496-0.495-1.299-0.495-1.794,0c-3.556,3.556-1.706,6.701-0.354,8.996C-263.701-120.25-263.337-119.292-264.745-117.883z"/><path d="M-279.928-115.015l-1.096,1.097c-0.496,0.495-0.496,1.298,0,1.793c0.246,0.248,0.572,0.372,0.896,0.372   s0.648-0.124,0.896-0.372l1.095-1.095l1.097,1.097c0.248,0.248,0.572,0.371,0.896,0.371s0.649-0.123,0.896-0.371   c0.496-0.495,0.496-1.298,0-1.793l-1.096-1.097l1.096-1.097c0.496-0.495,0.496-1.298,0-1.793c-0.494-0.495-1.297-0.495-1.793,0   l-1.096,1.097l-1.096-1.097c-0.496-0.495-1.299-0.495-1.794,0s-0.495,1.298,0,1.793L-279.928-115.015z"/><path d="M-232.303-121.864l-1.096,1.096c-0.495,0.496-0.495,1.298,0,1.794c0.248,0.247,0.572,0.371,0.896,0.371   c0.325,0,0.649-0.124,0.896-0.371l1.096-1.095l1.098,1.096c0.247,0.248,0.571,0.372,0.896,0.372c0.324,0,0.648-0.124,0.896-0.372   c0.495-0.495,0.495-1.298,0-1.793l-1.097-1.097l1.097-1.096c0.495-0.496,0.495-1.298,0-1.794c-0.495-0.495-1.299-0.495-1.793,0   l-1.098,1.097l-1.096-1.097c-0.495-0.495-1.297-0.495-1.793,0c-0.496,0.496-0.496,1.298,0,1.794L-232.303-121.864z"/><path d="M-252.297-114.511l-1.096-1.097c-0.496-0.495-1.298-0.495-1.793,0c-0.496,0.495-0.496,1.298,0,1.793l1.096,1.096   l-1.096,1.096c-0.496,0.495-0.496,1.298,0,1.794c0.247,0.247,0.572,0.371,0.896,0.371s0.648-0.124,0.896-0.371l1.096-1.096   l1.097,1.097c0.247,0.248,0.571,0.372,0.896,0.372s0.649-0.124,0.896-0.372c0.495-0.495,0.495-1.298,0-1.793l-1.097-1.097   l1.097-1.097c0.495-0.495,0.495-1.298,0-1.793s-1.298-0.495-1.793,0L-252.297-114.511z"/><path d="M-266.844-108.306c0.699,0,1.268-0.567,1.268-1.268v-0.458c0-0.7-0.568-1.268-1.268-1.268c-0.701,0-1.27,0.567-1.27,1.268   v0.458C-268.113-108.874-267.545-108.306-266.844-108.306z"/><path d="M-235.3-109.379c0.7,0,1.269-0.568,1.269-1.268v-0.458c0-0.7-0.568-1.268-1.269-1.268s-1.269,0.567-1.269,1.268v0.458   C-236.568-109.948-236-109.379-235.3-109.379z"/><path d="M-222.971-128.907c0.7,0,1.268-0.568,1.268-1.269v-0.457c0-0.7-0.567-1.268-1.268-1.268c-0.701,0-1.269,0.567-1.269,1.268   v0.457C-224.239-129.475-223.672-128.907-222.971-128.907z"/><path d="M-272.922-128.647c0.701,0,1.269-0.568,1.269-1.269v-0.457c0-0.7-0.567-1.269-1.269-1.269c-0.7,0-1.268,0.568-1.268,1.269   v0.457C-274.189-129.215-273.622-128.647-272.922-128.647z"/></g><g><path d="M38.462,37.178h13.668c0.51,0,0.969-0.305,1.168-0.773l2.678-6.342c0.164-0.393,0.123-0.84-0.111-1.195   c-0.236-0.354-0.633-0.566-1.057-0.566H35.786c-0.426,0-0.822,0.213-1.057,0.566c-0.235,0.355-0.278,0.803-0.112,1.195l2.677,6.34   C37.492,36.873,37.952,37.178,38.462,37.178z M52.896,30.838l-1.607,3.803H39.303l-1.606-3.803H52.896z"/><path d="M54.637,57.193c-0.129-0.58-0.645-0.994-1.238-0.994H36.771c-0.625,0-1.157,0.457-1.253,1.074l-0.986,6.34   c-0.057,0.367,0.049,0.74,0.29,1.02c0.241,0.283,0.593,0.443,0.964,0.443h19.023c0.385,0,0.748-0.174,0.988-0.475   c0.24-0.299,0.332-0.691,0.248-1.068L54.637,57.193z M37.266,62.541l0.591-3.805h14.524l0.846,3.805H37.266z"/><path d="M59.439,69.898l0.039-0.449c0.232,0.256,0.562,0.418,0.936,0.418c0.699,0,1.268-0.566,1.268-1.268v-7.326   c0-0.701-0.568-1.27-1.268-1.27c-0.043,0-0.082,0.008-0.123,0.014l0.422-4.895c0.117-1.357,0.172-3.572,0.123-4.939l-0.512-14.074   l1.156,0.531c0.17,0.078,0.35,0.115,0.527,0.115c0.48,0,0.939-0.273,1.154-0.738c0.291-0.637,0.012-1.391-0.623-1.682l-2.316-1.064   l-0.033-0.906c0.072,0.012,0.148,0.021,0.225,0.021c0.699,0,1.268-0.566,1.268-1.268v-7.326c0-0.701-0.568-1.27-1.268-1.27   c-0.209,0-0.402,0.057-0.578,0.145l-0.055-1.553c-0.096-2.6-3.508-4.561-7.941-4.561H38.75c-3.863,0-7.823,1.324-7.915,3.855   l-0.081,2.258c-0.174-0.088-0.368-0.145-0.576-0.145c-0.7,0-1.268,0.568-1.268,1.27v7.326c0,0.701,0.567,1.268,1.268,1.268   c0.077,0,0.151-0.01,0.224-0.021l-0.032,0.906l-2.315,1.064c-0.636,0.293-0.915,1.045-0.622,1.682   c0.214,0.465,0.673,0.738,1.153,0.738c0.177,0,0.356-0.037,0.528-0.115l1.152-0.531l-0.51,14.076   c-0.05,1.365,0.005,3.58,0.122,4.938l0.422,4.895c-0.041-0.006-0.08-0.014-0.122-0.014c-0.7,0-1.268,0.568-1.268,1.27V68.6   c0,0.701,0.567,1.268,1.268,1.268c0.372,0,0.703-0.162,0.935-0.418l0.039,0.449c0.169,1.957,1.903,3.547,3.865,3.547h9.863   c0.146,0,0.284-0.029,0.415-0.074c0.131,0.045,0.269,0.074,0.416,0.074h9.863C57.535,73.445,59.27,71.855,59.439,69.898z    M58.301,50.277c0.023,0.621,0.021,1.451,0.002,2.285l-2.227-2.273v-8.02l1.857-2.104L58.301,50.277z M32.29,52.562   c-0.02-0.834-0.021-1.664,0.001-2.285l0.366-10.111l1.86,2.104v8.02L32.29,52.562z M55.574,70.91h-4.604   c0.025-0.098,0.041-0.197,0.041-0.303c0-0.699-0.568-1.268-1.268-1.268h-8.895c-0.701,0-1.269,0.568-1.269,1.268   c0,0.105,0.017,0.205,0.041,0.303h-4.604c-0.656,0-1.282-0.574-1.338-1.229l-1.182-13.707l4.193-4.281   c0.232-0.236,0.362-0.555,0.362-0.887v-9.018c0-0.311-0.113-0.609-0.317-0.84l-3.703-4.188c-0.073-0.084-0.157-0.15-0.244-0.209   l0.487-13.416l0.087-2.59c0.103-0.254,0.914-0.773,2.345-1.117c-0.02,0.09-0.032,0.182-0.032,0.277   c0,0.699,0.567,1.268,1.269,1.268h1.064c0.699,0,1.268-0.568,1.268-1.268c0-0.225-0.063-0.434-0.166-0.615h12.373   c-0.104,0.182-0.166,0.391-0.166,0.615c0,0.699,0.566,1.268,1.268,1.268h1.064c0.701,0,1.268-0.568,1.268-1.268   c0-0.064-0.01-0.123-0.018-0.184c1.451,0.445,2.328,1.15,2.348,1.684l0.121,3.338l0.438,12.031   c-0.084,0.057-0.176,0.105-0.244,0.186l-3.703,4.188c-0.205,0.232-0.318,0.529-0.318,0.84v9.018c0,0.332,0.131,0.65,0.363,0.887   l4.191,4.281l-1.182,13.707C56.855,70.336,56.23,70.91,55.574,70.91z"/><path d="M70.535,78.627c-0.699,0-1.268,0.566-1.268,1.268v0.846h-0.846c-0.699,0-1.268,0.568-1.268,1.268s0.568,1.268,1.268,1.268   h2.113c0.701,0,1.27-0.568,1.27-1.268v-2.113C71.805,79.193,71.236,78.627,70.535,78.627z"/><path d="M52.24,80.74h-4.26c-0.699,0-1.268,0.568-1.268,1.268s0.568,1.268,1.268,1.268h4.26c0.699,0,1.268-0.568,1.268-1.268   S52.939,80.74,52.24,80.74z"/><path d="M31.797,80.74H27.54c-0.7,0-1.269,0.568-1.269,1.268s0.568,1.268,1.269,1.268h4.258c0.701,0,1.269-0.568,1.269-1.268   S32.499,80.74,31.797,80.74z"/><path d="M42.019,80.74H37.76c-0.701,0-1.269,0.568-1.269,1.268s0.567,1.268,1.269,1.268h4.259c0.7,0,1.268-0.568,1.268-1.268   S42.719,80.74,42.019,80.74z"/><path d="M62.461,80.74h-4.26c-0.699,0-1.268,0.568-1.268,1.268s0.568,1.268,1.268,1.268h4.26c0.699,0,1.268-0.568,1.268-1.268   S63.16,80.74,62.461,80.74z"/><path d="M21.578,80.74h-0.846v-0.846c0-0.701-0.567-1.268-1.269-1.268c-0.699,0-1.268,0.566-1.268,1.268v2.113   c0,0.699,0.568,1.268,1.268,1.268h2.114c0.7,0,1.268-0.568,1.268-1.268S22.278,80.74,21.578,80.74z"/><path d="M19.463,21.975c0.701,0,1.269-0.568,1.269-1.268v-4.418c0-0.699-0.567-1.268-1.269-1.268c-0.699,0-1.268,0.568-1.268,1.268   v4.418C18.196,21.406,18.764,21.975,19.463,21.975z"/><path d="M19.463,53.777c0.701,0,1.269-0.568,1.269-1.27v-4.416c0-0.701-0.567-1.268-1.269-1.268c-0.699,0-1.268,0.566-1.268,1.268   v4.416C18.196,53.209,18.764,53.777,19.463,53.777z"/><path d="M19.463,64.377c0.701,0,1.269-0.566,1.269-1.268v-4.416c0-0.701-0.567-1.27-1.269-1.27c-0.699,0-1.268,0.568-1.268,1.27   v4.416C18.196,63.811,18.764,64.377,19.463,64.377z"/><path d="M19.463,43.176c0.701,0,1.269-0.568,1.269-1.268v-4.416c0-0.701-0.567-1.27-1.269-1.27c-0.699,0-1.268,0.568-1.268,1.27   v4.416C18.196,42.607,18.764,43.176,19.463,43.176z"/><path d="M19.463,74.979c0.701,0,1.269-0.568,1.269-1.268v-4.418c0-0.699-0.567-1.268-1.269-1.268c-0.699,0-1.268,0.568-1.268,1.268   v4.418C18.196,74.41,18.764,74.979,19.463,74.979z"/><path d="M19.463,32.576c0.701,0,1.269-0.568,1.269-1.268v-4.418c0-0.699-0.567-1.268-1.269-1.268c-0.699,0-1.268,0.568-1.268,1.268   v4.418C18.196,32.008,18.764,32.576,19.463,32.576z"/><path d="M21.578,6.725h-2.114c-0.699,0-1.268,0.568-1.268,1.268v2.113c0,0.701,0.568,1.27,1.268,1.27   c0.701,0,1.269-0.568,1.269-1.27V9.26h0.846c0.7,0,1.268-0.566,1.268-1.268C22.845,7.293,22.278,6.725,21.578,6.725z"/><path d="M47.982,9.26h4.258c0.699,0,1.268-0.566,1.268-1.268c0-0.699-0.568-1.268-1.268-1.268h-4.258   c-0.701,0-1.27,0.568-1.27,1.268C46.713,8.693,47.281,9.26,47.982,9.26z"/><path d="M62.461,6.725h-4.26c-0.699,0-1.268,0.568-1.268,1.268c0,0.701,0.568,1.268,1.268,1.268h4.26   c0.701,0,1.268-0.566,1.268-1.268C63.729,7.293,63.162,6.725,62.461,6.725z"/><path d="M37.76,9.26h4.259c0.7,0,1.268-0.566,1.268-1.268c0-0.699-0.567-1.268-1.268-1.268H37.76c-0.7,0-1.269,0.568-1.269,1.268   C36.492,8.693,37.06,9.26,37.76,9.26z"/><path d="M27.54,9.26h4.259c0.7,0,1.269-0.566,1.269-1.268c0-0.699-0.568-1.268-1.269-1.268H27.54c-0.7,0-1.268,0.568-1.268,1.268   C26.272,8.693,26.839,9.26,27.54,9.26z"/><path d="M70.535,6.725h-2.113c-0.699,0-1.268,0.568-1.268,1.268c0,0.701,0.568,1.268,1.268,1.268h0.846v0.846   c0,0.701,0.568,1.27,1.268,1.27c0.701,0,1.27-0.568,1.27-1.27V7.992C71.805,7.293,71.236,6.725,70.535,6.725z"/><path d="M70.535,46.824c-0.699,0-1.268,0.568-1.268,1.268v4.416c0,0.701,0.568,1.27,1.268,1.27c0.701,0,1.27-0.568,1.27-1.27   v-4.416C71.805,47.393,71.236,46.824,70.535,46.824z"/><path d="M70.535,25.623c-0.699,0-1.268,0.568-1.268,1.268v4.418c0,0.699,0.568,1.268,1.268,1.268c0.701,0,1.27-0.568,1.27-1.268   v-4.418C71.805,26.191,71.236,25.623,70.535,25.623z"/><path d="M70.535,15.021c-0.699,0-1.268,0.568-1.268,1.268v4.418c0,0.699,0.568,1.268,1.268,1.268c0.701,0,1.27-0.568,1.27-1.268   v-4.418C71.805,15.59,71.236,15.021,70.535,15.021z"/><path d="M70.535,57.424c-0.699,0-1.268,0.568-1.268,1.27v4.416c0,0.701,0.568,1.268,1.268,1.268c0.701,0,1.27-0.566,1.27-1.268   v-4.416C71.805,57.992,71.236,57.424,70.535,57.424z"/><path d="M70.535,68.025c-0.699,0-1.268,0.568-1.268,1.268v4.418c0,0.699,0.568,1.268,1.268,1.268c0.701,0,1.27-0.568,1.27-1.268   v-4.418C71.805,68.594,71.236,68.025,70.535,68.025z"/><path d="M70.535,36.223c-0.699,0-1.268,0.568-1.268,1.27v4.416c0,0.701,0.568,1.268,1.268,1.268c0.701,0,1.27-0.566,1.27-1.268   v-4.416C71.805,36.791,71.236,36.223,70.535,36.223z"/></g><path d="M-278.169-19.715l-8.286,0.134c-0.7,0.012-1.259,0.588-1.247,1.289c0.012,0.7,0.578,1.236,1.288,1.247l5.188-0.084  l-11.204,11.204c-0.495,0.495-0.495,1.299,0,1.793c0.248,0.248,0.572,0.372,0.896,0.372s0.649-0.124,0.896-0.372l11.115-11.114  l-0.164,4.907c-0.023,0.7,0.525,1.286,1.226,1.31c0.015,0,0.028,0.001,0.043,0.001c0.681,0,1.244-0.541,1.267-1.227l0.271-8.15  c0.011-0.347-0.12-0.684-0.363-0.931C-277.488-19.583-277.796-19.703-278.169-19.715z"/><path d="M-297.316-0.647h-25.015v-5.379c0-0.7-0.567-1.268-1.268-1.268h-21.236c-0.701,0-1.268,0.567-1.268,1.268V25.95  c0,0.701,0.567,1.269,1.268,1.269h6.375c0.701,0,1.268-0.567,1.268-1.269c0-0.7-0.567-1.268-1.268-1.268h-5.107V14.382h2.173  c0.701,0,1.269-0.568,1.269-1.268c0-0.701-0.568-1.27-1.269-1.27h-2.173V-4.758h18.7V0.62v2.597c0,0.7,0.567,1.269,1.268,1.269  s1.268-0.568,1.268-1.269V1.89h23.747v22.793h-23.747v-2.174c0-0.7-0.567-1.268-1.268-1.268s-1.268,0.567-1.268,1.268v2.174h-5.343  c-0.701,0-1.268,0.567-1.268,1.268c0,0.701,0.567,1.269,1.268,1.269h32.895c0.699,0,1.268-0.567,1.268-1.269V0.62  C-296.048-0.079-296.617-0.647-297.316-0.647z"/><path d="M-324.867,17.192c0,0.701,0.567,1.269,1.268,1.269s1.268-0.567,1.268-1.269V8.536c0-0.7-0.567-1.268-1.268-1.268  s-1.268,0.567-1.268,1.268v3.309h-11.275c-0.701,0-1.268,0.568-1.268,1.27c0,0.699,0.567,1.268,1.268,1.268h11.275V17.192z"/><path d="M-289.423,24.683h-2.111c-0.7,0-1.268,0.567-1.268,1.268c0,0.701,0.567,1.269,1.268,1.269h2.111  c0.701,0,1.268-0.567,1.268-1.269C-288.156,25.25-288.722,24.683-289.423,24.683z"/><path d="M-279.005,24.683h-4.34c-0.701,0-1.27,0.567-1.27,1.268c0,0.701,0.568,1.269,1.27,1.269h4.34  c0.699,0,1.268-0.567,1.268-1.269C-277.738,25.25-278.306,24.683-279.005,24.683z"/><path d="M-270.82,22.569c-0.7,0-1.268,0.567-1.268,1.268v0.846h-0.844c-0.7,0-1.268,0.567-1.268,1.268  c0,0.701,0.567,1.269,1.268,1.269h2.111c0.701,0,1.268-0.567,1.268-1.269v-2.113C-269.552,23.137-270.119,22.569-270.82,22.569z"/><path d="M-270.82-19.037c-0.7,0-1.268,0.567-1.268,1.268v4.334c0,0.701,0.567,1.269,1.268,1.269c0.701,0,1.268-0.567,1.268-1.269  v-4.334C-269.552-18.47-270.119-19.037-270.82-19.037z"/><path d="M-270.82,12.167c-0.7,0-1.268,0.568-1.268,1.269v4.334c0,0.7,0.567,1.269,1.268,1.269c0.701,0,1.268-0.568,1.268-1.269  v-4.334C-269.552,12.735-270.119,12.167-270.82,12.167z"/><path d="M-270.82-8.636c-0.7,0-1.268,0.567-1.268,1.269v4.334c0,0.7,0.567,1.269,1.268,1.269c0.701,0,1.268-0.568,1.268-1.269  v-4.334C-269.552-8.068-270.119-8.636-270.82-8.636z"/><path d="M-270.82,1.767c-0.7,0-1.268,0.566-1.268,1.268v4.334c0,0.701,0.567,1.268,1.268,1.268c0.701,0,1.268-0.566,1.268-1.268  V3.034C-269.552,2.333-270.119,1.767-270.82,1.767z"/><path d="M-270.82-27.219h-2.113c-0.701,0-1.269,0.567-1.269,1.269c0,0.7,0.567,1.268,1.269,1.268h0.846v0.846  c0,0.7,0.567,1.269,1.268,1.269c0.701,0,1.268-0.568,1.268-1.269v-2.113C-269.552-26.651-270.119-27.219-270.82-27.219z"/><path d="M-315.336-24.683h4.417c0.701,0,1.269-0.567,1.269-1.268c0-0.701-0.568-1.269-1.269-1.269h-4.417  c-0.701,0-1.268,0.567-1.268,1.269C-316.604-25.25-316.037-24.683-315.336-24.683z"/><path d="M-304.736-24.683h4.417c0.7,0,1.269-0.567,1.269-1.268c0-0.701-0.568-1.269-1.269-1.269h-4.417  c-0.701,0-1.268,0.567-1.268,1.269C-306.003-25.25-305.437-24.683-304.736-24.683z"/><path d="M-283.535-24.683h4.418c0.7,0,1.268-0.567,1.268-1.268c0-0.701-0.567-1.269-1.268-1.269h-4.418  c-0.7,0-1.268,0.567-1.268,1.269C-284.802-25.25-284.235-24.683-283.535-24.683z"/><path d="M-336.538-24.683h4.417c0.701,0,1.268-0.567,1.268-1.268c0-0.701-0.567-1.269-1.268-1.269h-4.417  c-0.701,0-1.268,0.567-1.268,1.269C-337.806-25.25-337.239-24.683-336.538-24.683z"/><path d="M-325.937-24.683h4.417c0.7,0,1.268-0.567,1.268-1.268c0-0.701-0.568-1.269-1.268-1.269h-4.417  c-0.701,0-1.269,0.567-1.269,1.269C-327.206-25.25-326.638-24.683-325.937-24.683z"/><path d="M-288.45-25.95c0-0.701-0.567-1.269-1.269-1.269h-4.417c-0.7,0-1.269,0.567-1.269,1.269c0,0.7,0.568,1.268,1.269,1.268  h4.417C-289.017-24.683-288.45-25.25-288.45-25.95z"/><path d="M-344.835-22.568c0.701,0,1.268-0.568,1.268-1.269v-0.846h0.846c0.7,0,1.268-0.567,1.268-1.268  c0-0.701-0.568-1.269-1.268-1.269h-2.114c-0.701,0-1.268,0.567-1.268,1.269v2.113C-346.104-23.137-345.536-22.568-344.835-22.568z"/><path d="M-344.835-15.353c0.701,0,1.268-0.567,1.268-1.268v-3.007c0-0.701-0.567-1.269-1.268-1.269s-1.268,0.567-1.268,1.269v3.007  C-346.104-15.92-345.536-15.353-344.835-15.353z"/><path d="M-344.835-9.028c0.701,0,1.268-0.568,1.268-1.269v-2.113c0-0.701-0.567-1.269-1.268-1.269s-1.268,0.567-1.268,1.269v2.113  C-346.104-9.597-345.536-9.028-344.835-9.028z"/><g><path d="M160.744,271.663c0.702,0,1.269-0.566,1.269-1.268v-0.668c0-0.702-0.566-1.269-1.269-1.269   c-0.693,0-1.269,0.566-1.269,1.269v0.668C159.476,271.097,160.051,271.663,160.744,271.663z"/><path d="M187.163,241.516h-73.982c-0.702,0-1.269,0.566-1.269,1.268v52.764c0,0.702,0.566,1.268,1.269,1.268h73.982   c0.702,0,1.269-0.565,1.269-1.268v-52.764C188.432,242.082,187.865,241.516,187.163,241.516z M185.896,294.278h-71.447v-23.697   h3.246v7.88v3.575v8.159c0,0.701,0.566,1.268,1.269,1.268h7.313h2.553h7.094h2.68h2.52h1.767h2.528h2.68h4.929h7.693h8.725h2.57   h0.431h0.863h1.817h5.377h0.879c0.702,0,1.269-0.566,1.269-1.268v-0.287v-40.505v-1.269c0-0.701-0.566-1.268-1.269-1.268h-62.418   c-0.702,0-1.269,0.566-1.269,1.268v19.91h-3.246v-23.993h71.447V294.278z M123.046,273.143c0.702,0,1.269-0.566,1.269-1.268v-5.318   c0-0.701-0.566-1.268-1.269-1.268c-0.701,0-1.268,0.566-1.268,1.268v1.488h-1.547v-11.422c1.682,0.77,4.312,1.142,7.194-1.563   c0.693,0.828,3.179,3.491,6.806,3.711c0.16,0.009,0.321,0.017,0.482,0.017c2.35,0,4.649-1.048,6.855-3.127   c1.26,0.473,3.086,0.423,4.692-0.212c2.554-1.015,3.94-3.213,3.839-6.045h30.012v33.065l-1.098-3.23   c-0.178-0.516-0.66-0.854-1.201-0.854s-1.031,0.338-1.201,0.854l-2.282,6.688c-0.161-0.093-0.329-0.178-0.49-0.263   c-1.015-0.549-2.055-1.09-3.103-1.589c-0.711-1.648-1.691-3.297-2.807-4.616v-17.965c0-0.702-0.566-1.269-1.269-1.269h-4.642   v-4.911c0.363,0.27,0.566,0.71,0.846,1.318c0.516,1.133,1.293,2.849,3.805,2.849c0.693,0,1.268-0.566,1.268-1.268   c0-0.702-0.574-1.269-1.268-1.269c-0.846,0-1.006-0.287-1.506-1.361c-0.566-1.251-1.42-3.127-4.412-3.127   c-0.702,0-1.269,0.566-1.269,1.268v6.501h-4.413c-0.701,0-1.268,0.566-1.268,1.269v6.873h-20.722c-0.702,0-1.269,0.566-1.269,1.268   v12.149c-1.539,0.735-3.035,1.599-4.473,2.562c-1.725-3.821-4.599-6.958-6.957-6.958c-0.051,0-0.102,0.009-0.152,0.018v-6.823   h1.547v1.294C121.778,272.576,122.345,273.143,123.046,273.143z M120.231,253.698v-4.295h27.332c0,0.008,0,0.018,0,0.025   c0.085,1.623-0.532,2.79-1.817,3.466c-1.505,0.795-3.153,0.55-3.415,0.355c-0.237-0.279-0.575-0.439-0.93-0.447   c-0.364-0.034-0.711,0.134-0.956,0.396c-2.021,2.13-4.05,3.146-6.044,3.044c-3.01-0.17-5.107-2.908-5.124-2.934   c-0.042-0.052-0.085-0.102-0.136-0.144l-0.846-0.829c-0.244-0.245-0.592-0.38-0.938-0.363c-0.347,0.017-0.677,0.178-0.904,0.439   c-2.08,2.409-4.041,2.874-6.003,1.412C120.384,253.774,120.308,253.732,120.231,253.698z M179.64,288.927h-3.652l1.826-5.352   L179.64,288.927z M173.493,288.369l-0.186,0.558h-1.277c-0.059-0.516-0.135-1.015-0.229-1.496c0.287,0.152,0.566,0.304,0.854,0.465   C172.935,288.048,173.214,288.209,173.493,288.369z M144.513,280.972c4.116-0.338,8.471,0.018,12.984,1.064   c-1.166,2.056-2.062,4.498-2.308,6.891h-7.964L144.513,280.972z M144.546,288.927h-5.081l2.545-7.447L144.546,288.927z    M143.675,278.503l-0.465-1.361l-0.033-0.067l-0.06-0.127l-0.06-0.102l-0.076-0.102l-0.084-0.084l-0.085-0.085l-0.102-0.076   l-0.11-0.067l-0.109-0.051l-0.076-0.033l-0.042-0.009l-0.118-0.025l-0.127-0.025h-0.11h-0.136l-0.109,0.017l-0.144,0.034   l-0.034,0.009l-0.067,0.033l-0.118,0.06l-0.102,0.059l-0.102,0.076l-0.093,0.076l-0.085,0.093l-0.067,0.102l-0.067,0.102   l-0.059,0.127l-0.026,0.067l-0.642,1.877c-1.996,0.397-3.94,0.955-5.816,1.683v-9.799h3.719l-0.017,0.152v0.677   c0,0.701,0.566,1.268,1.269,1.268c0.701,0,1.268-0.566,1.268-1.268v-0.677l-0.017-0.152h2.866l-0.009,0.152v0.677   c0,0.701,0.566,1.268,1.269,1.268c0.693,0,1.268-0.566,1.268-1.268v-0.677l-0.017-0.152h2.866l-0.018,0.152v0.677   c0,0.701,0.575,1.268,1.269,1.268c0.702,0,1.269-0.566,1.269-1.268v-0.677l-0.009-0.152h3.745c0.701,0,1.268-0.566,1.268-1.269   v-6.873h3.18c-0.025,0.094-0.043,0.195-0.043,0.297v0.668c0,0.701,0.575,1.268,1.269,1.268c0.702,0,1.269-0.566,1.269-1.268v-0.668   c0-0.102-0.009-0.203-0.035-0.297h3.416v14.525c-0.583-0.313-1.166-0.49-1.732-0.49h-0.034c-1.563,0-3.035,1.225-3.991,2.257   c-0.211,0.236-0.414,0.481-0.625,0.744C153.668,278.461,148.519,278.021,143.675,278.503z M139.211,281.825l-2.427,7.102h-8.082   c-0.109-0.71-0.254-1.429-0.465-2.139C131.61,284.446,135.297,282.781,139.211,281.825z M161.505,280.777   c0.989-1.074,1.758-1.445,2.131-1.445h0.008c0.998,0,3.458,2.442,4.92,6.138c0.482,1.2,0.778,2.366,0.914,3.457h-11.734   C158.124,285.858,159.798,282.629,161.505,280.777z M120.4,279.923c1.454,0,4.946,4.389,5.749,9.004h-5.918v-8.979   C120.29,279.94,120.35,279.923,120.4,279.923z"/></g><g><path d="M324.962-67.165h-2.651c0.525-0.671,1.184-1.104,1.829-1.524c0.927-0.606,2.08-1.357,2.033-2.744   c0.032-1.077-0.252-1.891-0.87-2.487c-1.035-1-2.713-1.107-5.092-0.956c-0.698,0.045-1.229,0.647-1.185,1.346   c0.046,0.7,0.646,1.237,1.347,1.186c2.372-0.151,3.005,0.09,3.167,0.248c0.069,0.067,0.106,0.292,0.114,0.603   c-0.084,0.147-0.556,0.456-0.9,0.681c-1.146,0.748-2.86,1.879-3.629,4.422c-0.002,0.005-0.004,0.01-0.005,0.015   c-0.015,0.05-0.035,0.089-0.049,0.141c-0.004,0.013-0.004,0.024-0.007,0.038c-0.011,0.044-0.018,0.089-0.023,0.134   c-0.005,0.043-0.011,0.084-0.013,0.127c0,0.013-0.004,0.028-0.004,0.041c0,0.026,0.006,0.05,0.007,0.074   c0.003,0.047,0.007,0.093,0.015,0.138c0.006,0.039,0.016,0.075,0.026,0.113c0.011,0.042,0.022,0.081,0.037,0.121   c0.014,0.039,0.031,0.075,0.05,0.112c0.018,0.036,0.036,0.07,0.058,0.105c0.021,0.034,0.044,0.067,0.069,0.099   c0.024,0.033,0.049,0.066,0.077,0.096c0.027,0.03,0.057,0.057,0.086,0.083c0.031,0.028,0.062,0.055,0.096,0.079   s0.069,0.046,0.105,0.067c0.034,0.021,0.067,0.04,0.103,0.057c0.043,0.02,0.088,0.036,0.132,0.051   c0.023,0.009,0.043,0.021,0.066,0.026c0.01,0.002,0.021,0.002,0.03,0.004c0.101,0.026,0.203,0.043,0.311,0.043h4.67   c0.7,0,1.269-0.568,1.269-1.269S325.662-67.165,324.962-67.165z"/><path d="M333.954-71.061c-0.7,0-1.268,0.568-1.268,1.268v0.174l-1.452,0.008l1.262-3.579c0.232-0.661-0.114-1.384-0.775-1.617   c-0.659-0.23-1.385,0.114-1.618,0.774l-1.858,5.274c-0.137,0.388-0.075,0.819,0.163,1.156c0.237,0.335,0.623,0.533,1.033,0.533   c0.001,0,0.003,0,0.005,0l3.241-0.016v1.149c0,0.7,0.567,1.269,1.268,1.269s1.269-0.568,1.269-1.269v-3.857   C335.223-70.492,334.654-71.061,333.954-71.061z"/><path d="M354.893-74.92h-5.337c-0.699,0-1.268,0.568-1.268,1.269s0.568,1.268,1.268,1.268h2.918l-3.96,5.727   c-0.399,0.576-0.255,1.367,0.321,1.766c0.22,0.151,0.471,0.225,0.721,0.225c0.401,0,0.797-0.19,1.043-0.547l5.337-7.716   c0.269-0.389,0.3-0.892,0.08-1.31C355.797-74.657,355.364-74.92,354.893-74.92z"/><path d="M345.189-77.517c-0.65-0.271-1.391,0.038-1.658,0.685l-5.469,13.184c-0.269,0.647,0.039,1.389,0.686,1.658   c0.159,0.065,0.323,0.096,0.485,0.096c0.498,0,0.97-0.294,1.173-0.781l5.469-13.184C346.143-76.507,345.836-77.249,345.189-77.517z   "/><path d="M339.144-93.42c-1.096,0-1.987,0.892-1.987,1.988s0.892,1.988,1.987,1.988s1.987-0.892,1.987-1.988   S340.239-93.42,339.144-93.42z M339.144-90.884c-0.303,0-0.549-0.246-0.549-0.548c0-0.303,0.246-0.549,0.549-0.549   s0.549,0.246,0.549,0.549C339.692-91.13,339.446-90.884,339.144-90.884z"/><path d="M358.193-118.652c-0.162-0.076-0.333-0.125-0.509-0.16c1.275-1.561,1.95-3.602,1.858-5.067   c-0.094-1.473-0.886-2.062-1.35-2.284c-0.62-0.292-1.336-0.28-2.133,0.026v-6.478c0-2.021-1.645-3.666-3.665-3.666h-26.504   c-2.021,0-3.665,1.646-3.665,3.666v16.207l-9.186,11.729c-0.095,0.12-0.167,0.258-0.212,0.404   c-0.149,0.479-3.625,11.785-3.07,24.083l-4.026,9.226c-0.279,0.643,0.014,1.391,0.655,1.67c0.166,0.072,0.337,0.105,0.507,0.105   c0.488,0,0.955-0.284,1.163-0.762l4.145-9.497c0.078-0.179,0.114-0.375,0.104-0.57c-0.556-11.043,2.4-21.652,2.879-23.285   l7.042-8.991v3.679l-0.752,0.251c-0.665,0.222-1.023,0.938-0.803,1.604c0.222,0.664,0.938,1.024,1.604,0.803l17.124-5.7   c0.552,1.659,1.23,3.946-12.498,10.332c-0.325,0.151-0.571,0.435-0.677,0.777c-0.106,0.342-0.062,0.715,0.123,1.022   c0.897,1.503,1.496,2.95,1.865,4.333c0.014,0.139,0.043,0.271,0.097,0.393c0.606,2.536,0.446,4.832-0.061,6.786   c-0.071,0.145-0.114,0.301-0.127,0.468c-1.042,3.542-3.157,5.867-3.581,6.306c-0.486,0.506-0.472,1.309,0.033,1.794   c0.246,0.237,0.562,0.354,0.88,0.354c0.332,0,0.664-0.129,0.913-0.388c0.47-0.487,2.705-2.946,3.985-6.704h14.706   c-2.309,3.844-5.587,6.301-8.034,7.704c-0.608,0.349-0.817,1.123-0.47,1.73c0.234,0.41,0.662,0.638,1.101,0.638   c0.214,0,0.432-0.053,0.631-0.167c2.953-1.692,7.018-4.757,9.609-9.742c0.027-0.053,0.046-0.108,0.064-0.163h4.436   c2.021,0,3.665-1.643,3.665-3.664v-13.16c0.014-0.009,0.028-0.01,0.043-0.02c2.286-1.462,3.564-4.515,3.439-6.505   c-0.094-1.473-0.886-2.062-1.35-2.283c-0.032-0.015-0.066-0.023-0.1-0.036c1.005-1.469,1.53-3.214,1.449-4.513   C359.449-117.842,358.657-118.431,358.193-118.652z M356.061-113.368v-2.373c0.033-0.02,0.066-0.034,0.098-0.058   c0.411-0.294,0.689-0.426,0.856-0.484C357.084-115.722,356.777-114.462,356.061-113.368z M356.158-123.311   c0.411-0.294,0.689-0.426,0.856-0.483c0.069,0.562-0.237,1.821-0.954,2.914v-2.373   C356.094-123.272,356.127-123.287,356.158-123.311z M341.797-112.488c-0.119-0.356-0.221-0.665-0.246-0.923   c-0.035-0.387-0.246-0.733-0.569-0.944c-0.323-0.212-0.726-0.263-1.094-0.141l-11.366,3.783v-19.185h21.068v33.315h-19.127   c-0.312-0.984-0.726-1.995-1.259-3.028C342.67-106.044,342.911-109.14,341.797-112.488z M353.524-89.852   c0,0.622-0.507,1.128-1.129,1.128h-21.385c0.286-1.618,0.348-3.405,0.048-5.322h19.8c0.7,0,1.268-0.567,1.268-1.268v-35.852   c0-0.7-0.567-1.269-1.268-1.269h-23.604c-0.7,0-1.269,0.568-1.269,1.269v21.296l-1.223,0.407v-23.153   c0-0.622,0.506-1.129,1.129-1.129h26.504c0.622,0,1.129,0.507,1.129,1.129V-89.852z M356.061-106.535v-2.373   c0.033-0.021,0.066-0.035,0.098-0.058c0.411-0.294,0.689-0.427,0.856-0.484C357.084-108.889,356.777-107.629,356.061-106.535z"/></g><path d="M144.624-106.495c-0.344-0.717-0.887-1.295-1.561-1.686c-0.097-0.079-0.202-0.149-0.324-0.198  c-0.572-0.23-0.782-1.537-0.77-2.186c0.02-0.698-0.531-1.281-1.229-1.302c-0.701-0.046-1.283,0.529-1.305,1.229  c-0.006,0.192-0.014,1.155,0.306,2.177c-1.072,0.398-1.948,1.247-2.341,2.37c-0.197,0.563-0.247,1.149-0.183,1.725  c-0.945,0.186-1.978,0.603-2.993,1.163c-1.243-3.395-2.932-5.685-5.023-6.857v-0.146c0.298,0.026,0.599,0.044,0.906,0.044  c4.63,0,10.065-2.792,10.338-2.933c0.621-0.323,0.863-1.089,0.54-1.709c-0.123-0.239-0.313-0.421-0.535-0.537  c-0.193-0.212-0.456-0.364-0.764-0.405c-3.118-0.418-4.439-3.506-4.495-3.637c-0.059-0.143-0.143-0.266-0.242-0.372  c-0.539-3.391-3.476-5.993-7.016-5.993c-3.543,0-6.48,2.605-7.019,5.998c-0.098,0.105-0.182,0.227-0.24,0.367  c-0.056,0.131-1.377,3.219-4.495,3.637c-0.309,0.041-0.571,0.193-0.766,0.407c-0.221,0.116-0.41,0.297-0.533,0.535  c-0.323,0.62-0.081,1.386,0.541,1.709c0.271,0.141,5.706,2.933,10.336,2.933c0.308,0,0.608-0.018,0.907-0.044v0.134  c-2.02,1.13-3.508,3.224-4.604,5.777c-0.029,0.041-0.062,0.079-0.087,0.125l-6.174,10.981l-6.512-14.229  c-0.085-0.184-0.211-0.333-0.357-0.453c-0.941-2.482-2.141-4.529-3.659-5.825v-2.532c3.318-0.601,5.847-3.505,5.847-6.994  c0-2.513-1.312-4.72-3.285-5.986c1.435-0.676,2.744-1.593,3.202-2.789c0.25-0.655-0.079-1.388-0.732-1.638  c-0.653-0.251-1.388,0.078-1.638,0.732c-0.347,0.908-3.337,2.134-5.81,2.668c-3.377,0.552-5.966,3.482-5.966,7.013  c0,3.489,2.527,6.394,5.845,6.994v1.986c-0.081,0.08-0.154,0.171-0.211,0.271c-1.771,1.346-3.12,3.694-4.149,6.562l-7.321,15.557  l-8.184-3.6c-0.001,0-0.002,0-0.002-0.001c-0.273-0.246-0.566-0.455-0.875-0.631v-1.462c2.299-0.569,4.011-2.645,4.011-5.117  c0-2.198-1.351-4.086-3.265-4.879c-0.152-0.161-0.345-0.288-0.572-0.354c-1.198-0.342-3.344-1.382-3.122-2.352  c0.156-0.682-0.271-1.362-0.954-1.519c-0.682-0.16-1.363,0.271-1.518,0.954c-0.345,1.504,0.385,2.71,1.463,3.611  c-1.549,0.921-2.592,2.608-2.592,4.537c0,2.473,1.713,4.548,4.013,5.117v1.462c-1.016,0.582-1.845,1.568-2.519,2.815  c-0.009,0.011-0.021,0.02-0.029,0.031l-7.584,10.318c-0.414,0.564-0.293,1.358,0.271,1.773c0.226,0.166,0.489,0.246,0.751,0.246  c0.389,0,0.773-0.18,1.022-0.517l3.391-4.613c-0.863,5.308-0.745,10.822-0.712,11.87c0.016,0.502,0.326,0.947,0.791,1.135  c0.463,0.189,0.996,0.087,1.357-0.263c0.008-0.007,0.369-0.334,0.939-0.707l0.695,7.001h-1.811c-0.699,0-1.268,0.568-1.268,1.269  s0.568,1.268,1.268,1.268h3.211h2.986h3.211c0.701,0,1.27-0.567,1.27-1.268s-0.568-1.269-1.27-1.269h-1.811l0.694-6.999  c0.574,0.373,0.934,0.7,0.94,0.705c0.24,0.233,0.559,0.356,0.881,0.356c0.16,0,0.322-0.03,0.477-0.094  c0.465-0.188,0.775-0.633,0.791-1.135c0.045-1.438,0.256-11.285-2.138-17.47l5.429,2.388c0.166,0.073,0.339,0.106,0.509,0.106  c0.08,0,0.157-0.019,0.236-0.033c0.108,0.028,0.219,0.049,0.329,0.049c0.475,0,0.932-0.27,1.148-0.729l3.055-6.491  c-1.01,8.118-0.847,16.127-0.801,17.731c0.014,0.512,0.336,0.965,0.814,1.148c0.147,0.056,0.301,0.083,0.453,0.083  c0.341,0,0.676-0.138,0.92-0.396c0.009-0.009,0.291-0.301,0.781-0.706l1.477,11.484h-2.781c-0.699,0-1.268,0.568-1.268,1.269  s0.568,1.268,1.268,1.268h4.223h5.897h4.222c0.7,0,1.269-0.567,1.269-1.268s-0.568-1.269-1.269-1.269h-2.78l1.423-11.069  c0.193,0.176,0.301,0.286,0.306,0.291c0.353,0.372,0.893,0.494,1.373,0.312c0.478-0.184,0.8-0.637,0.813-1.148  c0.047-1.616,0.212-9.729-0.82-17.906l3.046,6.653c0.024,0.055,0.063,0.097,0.094,0.146c0.021,0.031,0.039,0.065,0.062,0.095  c0.047,0.062,0.098,0.113,0.153,0.163c0.01,0.008,0.019,0.016,0.028,0.023c0.229,0.196,0.515,0.314,0.815,0.314  c0.177,0,0.356-0.037,0.527-0.115c0.274-0.125,0.478-0.34,0.604-0.591l2.871-5.109c-0.779,5.741-0.636,11.087-0.593,12.229  c0.019,0.478,0.305,0.904,0.74,1.104c0.386,0.178,0.829,0.137,1.187-0.083c-0.3,4.042-0.197,7.253-0.192,7.407  c0.017,0.492,0.316,0.93,0.77,1.123c0.16,0.068,0.33,0.103,0.498,0.103c0.306,0,0.607-0.111,0.845-0.322  c0.01-0.009,0.483-0.414,1.251-0.861l0.596,7.243h-1.711c-0.7,0-1.269,0.568-1.269,1.269s0.568,1.268,1.269,1.268h9.706  c0.7,0,1.269-0.567,1.269-1.268s-0.568-1.269-1.269-1.269h-1.713l0.597-7.243c0.772,0.447,1.244,0.854,1.253,0.861  c0.365,0.328,0.892,0.413,1.343,0.22c0.452-0.193,0.752-0.631,0.769-1.123c0.005-0.151,0.107-3.364-0.193-7.413  c0.203,0.125,0.428,0.205,0.661,0.205c0.179,0,0.358-0.037,0.526-0.114c0.437-0.199,0.723-0.627,0.741-1.105  c0.007-0.179,0.149-4.221-0.297-9.214c0.03-0.01,0.062-0.016,0.091-0.029l5.634-2.489c0.641-0.283,0.931-1.032,0.647-1.673  s-1.03-0.932-1.673-0.647l-0.62,0.274c0.905-1.489,1.605-3.173,1.53-4.536c1.239-0.324,2.272-1.236,2.708-2.483  C145.137-104.489,145.077-105.553,144.624-106.495z M77.98-102.662c0-1.513,1.231-2.744,2.745-2.744  c1.512,0,2.742,1.231,2.742,2.744c0,1.512-1.23,2.741-2.742,2.741C79.212-99.921,77.98-101.15,77.98-102.662z M81.069-66.992h-0.658  l-0.827-8.021c0.213-0.039,0.429-0.075,0.651-0.085l0.924-0.002c0.242,0.011,0.476,0.048,0.707,0.091L81.069-66.992z M81.216-77.634  l-1.038,0.001c-1.404,0.063-2.649,0.525-3.618,1.037c0.046-5.207,0.73-11.862,2.488-15.297c0.018-0.032,0.034-0.064,0.049-0.098  c0.43-0.814,0.922-1.436,1.484-1.801c0.049,0.005,0.094,0.015,0.145,0.015c0.049,0,0.096-0.01,0.143-0.015  c2.912,1.894,3.965,10.687,4.021,17.201C83.912-77.104,82.649-77.57,81.216-77.634z M99.427-123.222  c0-2.524,2.053-4.578,4.578-4.578c2.524,0,4.578,2.054,4.578,4.578s-2.054,4.578-4.578,4.578  C101.479-118.644,99.427-120.697,99.427-123.222z M100.636-106.255l0.045-0.094c0.045-0.097,0.072-0.197,0.093-0.298  c0.788-2.22,1.762-4.002,2.967-5.052c5.021,4.375,6.076,21.422,6.069,30.418c-1.298-0.876-3.11-1.814-5.235-2.135  c-0.153-0.066-0.323-0.103-0.501-0.103l-0.199,0.002c-0.051,0.002-0.102,0.005-0.153,0.008c-0.059-0.003-0.118-0.007-0.178-0.01  h-0.139c-0.169,0-0.331,0.033-0.479,0.094c-2.127,0.309-3.95,1.255-5.257,2.141C97.665-87.997,98.252-99.188,100.636-106.255z   M105.838-66.992h-3.667l-1.674-13.023c0.939-0.471,2.035-0.856,3.222-0.951c1.419,0.115,2.709,0.638,3.758,1.227L105.838-66.992z   M139.536-100.984c0.247,0.721-1.129,4.078-3.808,6.354c-1.265,1.073-3.131,2.153-4.887,1.281l-0.306-0.246  c-0.648-1.104-0.378-2.443,0.804-3.982c2.251-2.93,6.267-4.62,7.051-4.354c0.023,0.013,0.049,0.02,0.073,0.031  c0.274,0.249,0.593,0.445,0.932,0.609C139.432-101.187,139.469-101.082,139.536-100.984z M136.604-114.168  c-1.354,0.52-2.959,1.025-4.505,1.288c1.05-0.762,1.888-1.798,2.396-3.008C135.044-115.275,135.742-114.661,136.604-114.168z   M127.934-123.211c2.523,0,4.577,2.053,4.577,4.577s-2.054,4.578-4.577,4.578c-2.524,0-4.579-2.054-4.579-4.578  S125.409-123.211,127.934-123.211z M121.371-115.888c0.508,1.21,1.347,2.246,2.395,3.008c-1.546-0.263-3.15-0.769-4.504-1.288  C120.123-114.661,120.821-115.275,121.371-115.888z M127.92-107.874c1.676,0.913,3.057,2.963,4.116,6.11  c-0.761,0.585-1.456,1.209-2.018,1.822c-2.5,2.727-3.044,5.61-1.492,7.911c0.07,0.104,0.156,0.198,0.255,0.278l0.567,0.457  c0.062,0.049,0.126,0.093,0.195,0.13c0.83,0.446,1.718,0.665,2.633,0.665c0.604,0,1.223-0.104,1.843-0.294  c0.175,2.274,0.229,4.315,0.237,5.763c-1.488-0.782-3.688-1.646-6.255-1.741l-0.185,0.001c-2.547,0.094-4.737,0.961-6.221,1.745  C121.616-92.033,122.74-105.02,127.92-107.874z M128.528-66.992h-1.191l-0.679-8.24c0.392-0.091,0.8-0.155,1.223-0.173l0.054-0.001  c0.441,0.019,0.866,0.085,1.271,0.179L128.528-66.992z M127.986-77.941l-0.157,0.001c-1.771,0.072-3.324,0.663-4.476,1.271  c0.018-1.652,0.097-4.026,0.353-6.557c1.138-0.501,2.574-0.95,4.157-1.009l0.093-0.001c1.615,0.06,3.076,0.516,4.225,1.021  c-0.003,0.06-0.007,0.118-0.001,0.177c0.241,2.46,0.316,4.76,0.334,6.373C131.354-77.275,129.785-77.868,127.986-77.941z   M142.396-104.341c-0.244,0.696-1.035,1.098-1.757,0.844c-0.348-0.122-0.627-0.371-0.786-0.702c-0.16-0.332-0.181-0.707-0.06-1.054  c0.193-0.553,0.718-0.925,1.303-0.925c0.155,0,0.309,0.026,0.454,0.077c0.348,0.122,0.628,0.372,0.787,0.704  C142.498-105.064,142.519-104.69,142.396-104.341z"/><path d="M-147.172,40.751h13.678c0.701,0,1.269-0.567,1.269-1.268c0-0.7-0.567-1.268-1.269-1.268h-13.678  c-0.699,0-1.268,0.568-1.268,1.268C-148.439,40.184-147.871,40.751-147.172,40.751z"/><path d="M-150.994,48.688h21.555c0.699,0,1.268-0.566,1.268-1.268c0-0.7-0.568-1.268-1.268-1.268h-21.555  c-0.7,0-1.268,0.567-1.268,1.268C-152.262,48.121-151.694,48.688-150.994,48.688z"/><path d="M-129.439,52.486h-21.555c-0.7,0-1.268,0.567-1.268,1.269c0,0.7,0.567,1.269,1.268,1.269h21.555  c0.699,0,1.268-0.568,1.268-1.269C-128.172,53.054-128.74,52.486-129.439,52.486z"/><path d="M-129.439,58.822h-21.555c-0.7,0-1.268,0.566-1.268,1.268c0,0.7,0.567,1.268,1.268,1.268h21.555  c0.699,0,1.268-0.567,1.268-1.268C-128.172,59.389-128.74,58.822-129.439,58.822z"/><path d="M-94.31,107.406l-4.208-9.641c0.582-12.832-3.045-24.633-3.201-25.131c-0.036-0.117-0.089-0.227-0.156-0.328  c-1.271-1.901-7.736-11.455-10.269-12.984c-2.108-1.271-8.301-3.345-10.484-4.058V34.089c0-0.7-0.568-1.269-1.269-1.269h-32.872  c-0.7,0-1.269,0.568-1.269,1.269v13.103c-0.939-0.438-1.773-0.494-2.485-0.156c-0.474,0.224-1.281,0.826-1.376,2.336  c-0.098,1.542,0.621,3.7,1.98,5.324c-0.209,0.035-0.413,0.089-0.604,0.18c-0.474,0.225-1.281,0.826-1.376,2.336  c-0.094,1.471,0.566,3.494,1.807,5.089c-0.418,0.344-0.855,0.955-0.924,2.044c-0.119,1.881,0.985,4.666,2.979,6.292v10.985  c0,0.701,0.568,1.268,1.269,1.268h11.101c0.016,0.018,0.021,0.041,0.037,0.059l4.94,5.15c0.729,2.232,5.538,15.377,19.142,20.99  c0.158,0.064,0.322,0.096,0.483,0.096c0.498,0,0.971-0.297,1.173-0.785c0.267-0.648-0.041-1.389-0.688-1.656  c-13.429-5.541-17.732-19.529-17.773-19.67c-0.059-0.193-0.162-0.371-0.302-0.518l-3.517-3.666h7.87  c-1.409,1.391-2.319,2.758-2.378,2.846c-0.385,0.584-0.223,1.371,0.361,1.758c0.215,0.141,0.457,0.209,0.697,0.209  c0.412,0,0.816-0.201,1.061-0.57c0.019-0.031,1.949-2.934,4.347-4.209c0.018-0.01,0.032-0.023,0.048-0.033h6.269  c0.7,0,1.269-0.566,1.269-1.268V75.48c1.178,0.625,2.483,1.283,3.945,1.98c-5.881,11.336,1.978,20.014,2.925,20.996  c0.249,0.258,0.581,0.387,0.913,0.387c0.317,0,0.634-0.117,0.88-0.354c0.505-0.486,0.52-1.289,0.033-1.793  c-0.843-0.875-8.056-8.844-1.894-19.154c0.185-0.307,0.229-0.68,0.124-1.023c-0.106-0.342-0.353-0.625-0.678-0.775  c-2.805-1.305-5.03-2.447-6.799-3.451c-0.027-0.02-0.058-0.033-0.086-0.051c-7.25-4.142-6.649-5.97-6.181-7.379  c0.004-0.009,0.006-0.017,0.01-0.025l17.926,5.968c0.664,0.221,1.382-0.139,1.604-0.804c0.221-0.665-0.139-1.382-0.803-1.604  l-11.92-3.968v-6.495c2.908,0.965,7.618,2.621,9.174,3.559c1.566,0.945,6.526,7.831,9.365,12.064  c0.444,1.506,3.612,12.709,3.023,24.379c-0.01,0.195,0.026,0.391,0.104,0.57l4.326,9.914c0.208,0.477,0.675,0.762,1.163,0.762  c0.169,0,0.341-0.035,0.506-0.105C-94.324,108.797-94.031,108.049-94.31,107.406z M-158.037,57.93v2.893  c-1.019-1.273-1.438-2.965-1.322-3.598c0.17,0.051,0.482,0.185,0.969,0.533C-158.279,57.838-158.16,57.891-158.037,57.93z   M-159.359,49.384c0.17,0.052,0.482,0.185,0.969,0.534c0.111,0.078,0.23,0.131,0.354,0.171v2.894  C-159.056,51.709-159.475,50.018-159.359,49.384z M-158.478,64.356c0.097,0.028,0.246,0.091,0.44,0.197v1.908  C-158.407,65.586-158.549,64.757-158.478,64.356z M-129.929,62.001c-0.365-0.122-0.77-0.071-1.093,0.142  c-0.324,0.21-0.533,0.558-0.57,0.943c-0.026,0.275-0.134,0.6-0.259,0.977c-0.942,2.829-0.945,5.485,6.685,10v6.291H-155.5V35.357  h30.334v28.229L-129.929,62.001z"/><path d="M-138.131,65.448l-2.096,1.367v-0.738c0-0.7-0.568-1.268-1.268-1.268h-9.73c-0.701,0-1.27,0.567-1.27,1.268v9.147  c0,0.701,0.568,1.268,1.27,1.268h9.73c0.699,0,1.268-0.566,1.268-1.268v-5.38l3.483-2.273c0.586-0.383,0.751-1.168,0.368-1.754  C-136.758,65.229-137.543,65.065-138.131,65.448z M-142.763,73.955h-7.194v-6.61h7.194v1.127l-2.374,1.549l-1.482-1.74  c-0.454-0.533-1.254-0.598-1.789-0.145c-0.533,0.455-0.596,1.254-0.143,1.787l2.207,2.593c0.249,0.293,0.605,0.447,0.967,0.447  c0.238,0,0.479-0.068,0.692-0.207l1.922-1.255V73.955z"/><g><path d="M-118.523-200.274c0.701,0,1.268-0.567,1.268-1.268v-2.2c3.549-0.549,6.353-3.354,6.902-6.901h2.199   c0.701,0,1.268-0.568,1.268-1.268c0-0.701-0.567-1.268-1.268-1.268h-2.199c-0.549-3.549-3.354-6.353-6.902-6.902v-2.2   c0-0.701-0.567-1.268-1.268-1.268c-0.7,0-1.268,0.567-1.268,1.268v2.2c-3.548,0.549-6.352,3.353-6.902,6.902h-2.199   c-0.7,0-1.268,0.567-1.268,1.268c0,0.7,0.568,1.268,1.268,1.268h2.2c0.549,3.548,3.354,6.352,6.901,6.901v2.2   C-119.792-200.842-119.224-200.274-118.523-200.274z M-124.119-210.644h1.707c0.701,0,1.268-0.568,1.268-1.268   c0-0.701-0.567-1.268-1.268-1.268h-1.707c0.486-2.148,2.179-3.84,4.327-4.328v1.707c0,0.7,0.568,1.268,1.268,1.268   c0.701,0,1.268-0.568,1.268-1.268v-1.707c2.148,0.487,3.841,2.179,4.328,4.328h-1.708c-0.7,0-1.268,0.567-1.268,1.268   c0,0.7,0.568,1.268,1.268,1.268h1.707c-0.486,2.148-2.179,3.84-4.327,4.327v-1.707c0-0.701-0.567-1.268-1.268-1.268   c-0.7,0-1.268,0.567-1.268,1.268v1.707C-121.94-206.804-123.631-208.496-124.119-210.644z"/><path d="M-81.489-213.3h-5.287c-0.011-0.272-0.008-0.544-0.027-0.815c-0.047-0.699-0.649-1.233-1.35-1.18   c-0.699,0.046-1.228,0.651-1.181,1.35c0.015,0.214,0.012,0.43,0.021,0.646h-9.939l3.584-3.354c0.511-0.478,0.538-1.281,0.06-1.792   c-0.479-0.51-1.281-0.538-1.792-0.06l-5.954,5.572c-0.253,0.237-0.399,0.568-0.402,0.915c-0.002,0.347,0.137,0.68,0.387,0.922   l5.954,5.764c0.246,0.239,0.564,0.357,0.882,0.357c0.332,0,0.663-0.129,0.912-0.386c0.487-0.503,0.474-1.306-0.029-1.793   l-3.728-3.608h10.078c-0.011,0.331-0.01,0.662-0.032,0.991c-0.047,0.699,0.482,1.303,1.181,1.35   c0.029,0.002,0.058,0.003,0.086,0.003c0.662,0,1.219-0.514,1.264-1.184c0.027-0.385,0.027-0.772,0.038-1.16h5.276   c0.701,0,1.268-0.568,1.268-1.268C-80.221-212.732-80.788-213.3-81.489-213.3z"/><path d="M-139.577-218.492c-0.504-0.487-1.307-0.474-1.793,0.029c-0.487,0.503-0.475,1.306,0.029,1.793l3.727,3.608h-10.074   c0.011-0.295,0.009-0.592,0.029-0.885c0.047-0.699-0.482-1.303-1.181-1.35c-0.701-0.053-1.303,0.481-1.35,1.18   c-0.024,0.348-0.022,0.702-0.035,1.054h-5.28c-0.7,0-1.268,0.567-1.268,1.268s0.568,1.268,1.268,1.268h5.284   c0.012,0.308,0.01,0.617,0.031,0.921c0.044,0.67,0.602,1.184,1.264,1.184c0.028,0,0.057-0.001,0.086-0.003   c0.699-0.046,1.228-0.651,1.181-1.35c-0.017-0.249-0.014-0.501-0.025-0.752h9.944l-3.585,3.354   c-0.512,0.479-0.538,1.281-0.059,1.792c0.249,0.267,0.587,0.402,0.926,0.402c0.311,0,0.622-0.114,0.866-0.342l5.954-5.572   c0.253-0.237,0.399-0.568,0.401-0.915c0.003-0.347-0.136-0.681-0.386-0.922L-139.577-218.492z"/><path d="M-125.117-233.378l5.571,5.955c0.237,0.253,0.568,0.398,0.915,0.401c0.004,0,0.008,0,0.011,0   c0.344,0,0.672-0.139,0.912-0.386l5.765-5.955c0.487-0.503,0.474-1.306-0.029-1.793c-0.503-0.487-1.307-0.474-1.793,0.029   l-3.609,3.727v-9.86c0.319,0.013,0.639,0.014,0.956,0.037c0.032,0.002,0.063,0.003,0.094,0.003c0.659,0,1.214-0.509,1.264-1.175   c0.051-0.699-0.474-1.307-1.172-1.358c-0.378-0.028-0.761-0.03-1.142-0.044v-5.493c0-0.701-0.567-1.268-1.268-1.268   c-0.7,0-1.268,0.567-1.268,1.268v5.503c-0.283,0.013-0.567,0.013-0.849,0.033c-0.699,0.051-1.223,0.659-1.172,1.358   c0.049,0.667,0.605,1.175,1.263,1.175c0.032,0,0.063-0.001,0.094-0.003c0.22-0.016,0.442-0.015,0.663-0.026v9.722l-3.354-3.584   c-0.478-0.511-1.28-0.538-1.792-0.06C-125.569-234.692-125.596-233.889-125.117-233.378z"/><path d="M-111.929-190.341l-5.571-5.954c-0.237-0.253-0.568-0.399-0.916-0.402c-0.342-0.006-0.68,0.137-0.921,0.386l-5.765,5.954   c-0.487,0.503-0.475,1.306,0.029,1.793c0.503,0.487,1.306,0.474,1.793-0.029l3.608-3.728v9.859   c-0.301-0.013-0.603-0.013-0.902-0.035c-0.702-0.044-1.306,0.474-1.357,1.172c-0.051,0.698,0.473,1.307,1.172,1.358   c0.36,0.026,0.725,0.027,1.088,0.042v5.494c0,0.701,0.568,1.269,1.268,1.269c0.701,0,1.268-0.568,1.268-1.269v-5.501   c0.302-0.013,0.604-0.013,0.903-0.035c0.698-0.051,1.223-0.66,1.172-1.358c-0.051-0.698-0.646-1.217-1.358-1.172   c-0.238,0.017-0.477,0.016-0.717,0.027v-9.724l3.354,3.584c0.25,0.267,0.587,0.402,0.927,0.402c0.31,0,0.621-0.113,0.866-0.342   C-111.478-189.027-111.451-189.829-111.929-190.341z"/><path d="M-144.994-227.178c0.209,0.131,0.443,0.194,0.674,0.194c0.422,0,0.833-0.21,1.075-0.594   c0.672-1.07,1.423-2.107,2.231-3.082c0.447-0.54,0.372-1.338-0.167-1.786c-0.54-0.447-1.338-0.371-1.786,0.167   c-0.877,1.06-1.694,2.187-2.425,3.351C-145.766-228.333-145.587-227.55-144.994-227.178z"/><path d="M-138.073-234.142c0.288,0,0.577-0.098,0.815-0.297c0.974-0.817,2.005-1.577,3.068-2.257   c0.59-0.377,0.762-1.162,0.384-1.751c-0.376-0.59-1.16-0.762-1.751-0.384c-1.154,0.739-2.275,1.563-3.332,2.451   c-0.536,0.45-0.605,1.25-0.155,1.787C-138.794-234.296-138.435-234.142-138.073-234.142z"/><path d="M-129.94-239.053c0.159,0,0.321-0.03,0.478-0.094c1.172-0.478,2.388-0.881,3.611-1.201c0.678-0.177,1.083-0.87,0.906-1.547   c-0.177-0.678-0.866-1.084-1.548-0.907c-1.33,0.348-2.651,0.787-3.926,1.306c-0.649,0.264-0.961,1.003-0.697,1.652   C-130.914-239.352-130.44-239.053-129.94-239.053z"/><path d="M-148.366-218.288c0.104,0.026,0.209,0.039,0.312,0.039c0.566,0,1.083-0.383,1.229-0.957   c0.31-1.229,0.705-2.448,1.171-3.622c0.258-0.651-0.06-1.388-0.711-1.646c-0.651-0.259-1.389,0.06-1.646,0.71   c-0.507,1.276-0.936,2.601-1.273,3.936C-149.456-219.149-149.044-218.46-148.366-218.288z"/><path d="M-93.748-227.577c0.24,0.383,0.653,0.594,1.075,0.594c0.23,0,0.464-0.063,0.673-0.194c0.593-0.373,0.772-1.156,0.399-1.749   c-0.731-1.164-1.547-2.292-2.425-3.351c-0.448-0.539-1.247-0.615-1.786-0.167c-0.54,0.447-0.614,1.246-0.168,1.786   C-95.171-229.684-94.42-228.647-93.748-227.577z"/><path d="M-91.339-222.828c0.467,1.176,0.861,2.395,1.172,3.622c0.145,0.575,0.662,0.957,1.229,0.957   c0.103,0,0.208-0.013,0.312-0.039c0.679-0.172,1.09-0.861,0.918-1.541c-0.337-1.333-0.766-2.657-1.273-3.936   c-0.259-0.651-0.996-0.969-1.647-0.71C-91.28-224.216-91.598-223.479-91.339-222.828z"/><path d="M-102.802-236.697c1.063,0.68,2.095,1.44,3.067,2.257c0.238,0.2,0.527,0.297,0.815,0.297c0.361,0,0.721-0.154,0.972-0.453   c0.451-0.536,0.381-1.336-0.155-1.787c-1.056-0.888-2.177-1.712-3.332-2.451c-0.59-0.379-1.375-0.206-1.752,0.384   C-103.564-237.859-103.393-237.075-102.802-236.697z"/><path d="M-106.574-241.496c-1.275-0.519-2.597-0.958-3.927-1.306c-0.679-0.179-1.371,0.229-1.547,0.907   c-0.178,0.677,0.229,1.37,0.906,1.547c1.223,0.32,2.438,0.724,3.611,1.201c0.156,0.064,0.318,0.094,0.477,0.094   c0.5,0,0.975-0.298,1.175-0.791C-105.614-240.493-105.926-241.232-106.574-241.496z"/><path d="M-88.627-205.43c-0.681-0.174-1.369,0.239-1.541,0.918c-0.311,1.227-0.705,2.446-1.172,3.622   c-0.258,0.651,0.06,1.388,0.71,1.646c0.154,0.061,0.312,0.09,0.468,0.09c0.504,0,0.981-0.303,1.179-0.8   c0.507-1.278,0.936-2.603,1.273-3.936C-87.537-204.569-87.948-205.259-88.627-205.43z"/><path d="M-92-196.541c-0.592-0.373-1.375-0.193-1.748,0.399c-0.673,1.07-1.423,2.107-2.231,3.082   c-0.446,0.539-0.372,1.338,0.168,1.786c0.236,0.196,0.523,0.292,0.808,0.292c0.364,0,0.727-0.157,0.978-0.459   c0.877-1.06,1.693-2.187,2.425-3.352C-91.228-195.386-91.406-196.168-92-196.541z"/><path d="M-99.735-189.278c-0.973,0.817-2.004,1.577-3.067,2.257c-0.59,0.378-0.762,1.162-0.385,1.752   c0.242,0.378,0.652,0.584,1.069,0.584c0.234,0,0.471-0.064,0.683-0.2c1.154-0.739,2.275-1.564,3.332-2.451   c0.537-0.451,0.606-1.25,0.155-1.787S-99.198-189.729-99.735-189.278z"/><path d="M-107.53-184.571c-1.173,0.477-2.389,0.881-3.611,1.201c-0.678,0.177-1.084,0.87-0.906,1.547   c0.148,0.57,0.663,0.948,1.226,0.948c0.106,0,0.214-0.014,0.321-0.042c1.33-0.348,2.651-0.787,3.927-1.306   c0.648-0.264,0.96-1.004,0.696-1.653C-106.142-184.523-106.88-184.834-107.53-184.571z"/><path d="M-125.851-183.371c-1.224-0.32-2.439-0.724-3.611-1.201c-0.648-0.265-1.389,0.048-1.653,0.696   c-0.264,0.649,0.048,1.389,0.697,1.653c1.275,0.519,2.596,0.958,3.926,1.306c0.108,0.028,0.215,0.042,0.322,0.042   c0.563,0,1.077-0.378,1.226-0.948C-124.768-182.5-125.173-183.193-125.851-183.371z"/><path d="M-143.246-196.142c-0.372-0.592-1.156-0.772-1.749-0.399c-0.593,0.372-0.772,1.155-0.399,1.748   c0.731,1.164,1.547,2.292,2.425,3.351c0.251,0.303,0.613,0.459,0.978,0.459c0.285,0,0.571-0.096,0.809-0.292   c0.539-0.447,0.614-1.247,0.167-1.786C-141.823-194.034-142.573-195.071-143.246-196.142z"/><path d="M-145.654-200.89c-0.466-1.175-0.861-2.393-1.171-3.622c-0.172-0.679-0.86-1.089-1.541-0.918   c-0.678,0.171-1.089,0.861-0.918,1.541c0.338,1.335,0.766,2.659,1.273,3.936c0.197,0.498,0.674,0.8,1.179,0.8   c0.155,0,0.314-0.029,0.467-0.09C-145.713-199.502-145.396-200.239-145.654-200.89z"/><path d="M-134.19-187.021c-1.062-0.681-2.094-1.44-3.068-2.257c-0.536-0.451-1.336-0.38-1.787,0.155   c-0.45,0.536-0.38,1.336,0.155,1.787c1.057,0.887,2.178,1.712,3.332,2.451c0.211,0.136,0.449,0.2,0.682,0.2   c0.418,0,0.827-0.207,1.069-0.584C-133.428-185.86-133.601-186.644-134.19-187.021z"/></g><g><path d="M251.04-91.023l-7.391-13.146c-0.03-0.052-0.066-0.096-0.102-0.142c-1.069-2.489-2.51-4.545-4.456-5.689v-0.205   c0.299,0.026,0.6,0.044,0.906,0.044c4.63,0,10.066-2.792,10.339-2.933c0.62-0.323,0.863-1.089,0.539-1.709   c-0.123-0.239-0.313-0.421-0.534-0.537c-0.193-0.212-0.456-0.364-0.764-0.405c-3.119-0.418-4.439-3.506-4.496-3.637   c-0.058-0.143-0.142-0.266-0.241-0.372c-0.541-3.392-3.476-5.993-7.016-5.993c-3.544,0-6.481,2.605-7.02,5.998   c-0.098,0.105-0.182,0.227-0.239,0.367c-0.057,0.131-1.377,3.219-4.496,3.637c-0.308,0.041-0.571,0.193-0.765,0.407   c-0.222,0.116-0.409,0.297-0.533,0.535c-0.324,0.62-0.081,1.386,0.54,1.709c0.272,0.141,5.706,2.933,10.336,2.933   c0.308,0,0.609-0.018,0.907-0.044v0.134c-1.185,0.662-2.185,1.655-3.032,2.879l-11.017,9.061c-0.542,0.444-0.619,1.244-0.174,1.785   c0.25,0.305,0.613,0.463,0.979,0.463c0.284,0,0.569-0.096,0.806-0.289l6.948-5.715c-2.396,7.646-2.138,17.576-2.077,19.184   c0.019,0.478,0.304,0.904,0.74,1.104c0.168,0.077,0.348,0.115,0.526,0.115c0.234,0,0.457-0.079,0.66-0.204   c-0.3,4.045-0.198,7.259-0.192,7.413c0.016,0.492,0.316,0.93,0.769,1.123c0.16,0.068,0.331,0.103,0.499,0.103   c0.306,0,0.607-0.111,0.844-0.322c0.01-0.009,0.484-0.414,1.252-0.861l0.596,7.243h-1.712c-0.7,0-1.269,0.568-1.269,1.269   s0.568,1.268,1.269,1.268h9.707c0.7,0,1.269-0.567,1.269-1.268s-0.568-1.269-1.269-1.269h-1.714l0.597-7.243   c0.772,0.447,1.245,0.854,1.253,0.861c0.366,0.328,0.894,0.412,1.343,0.22c0.452-0.193,0.753-0.631,0.77-1.123   c0.005-0.15,0.106-3.32-0.187-7.332c0.163,0.074,0.335,0.124,0.513,0.124c0.179,0,0.358-0.037,0.527-0.113   c0.436-0.199,0.723-0.628,0.741-1.106c0.043-1.143,0.187-6.494-0.595-12.239l2.903,5.164c0.232,0.414,0.663,0.646,1.106,0.646   c0.211,0,0.424-0.052,0.62-0.162C251.167-89.64,251.384-90.412,251.04-91.023z M244.021-85.026   c-1.482-0.784-3.674-1.651-6.22-1.745c-0.014-0.001-0.027,0.003-0.04,0.003c-0.019,0-0.035-0.004-0.053-0.003   c-2.546,0.094-4.737,0.961-6.221,1.745c0.017-5.773,0.783-15.61,3.952-20.49c0.053-0.066,0.101-0.138,0.139-0.212   c0.629-0.92,1.351-1.646,2.176-2.115C242.883-104.93,243.999-92.008,244.021-85.026z M246.496-114.168   c-1.354,0.519-2.958,1.025-4.505,1.288c1.05-0.763,1.888-1.798,2.395-3.008C244.936-115.275,245.634-114.661,246.496-114.168z    M237.825-123.211c2.523,0,4.577,2.053,4.577,4.577s-2.054,4.578-4.577,4.578c-2.524,0-4.579-2.054-4.579-4.578   S235.301-123.211,237.825-123.211z M231.262-115.888c0.509,1.21,1.346,2.245,2.394,3.007c-1.545-0.262-3.148-0.769-4.502-1.287   C230.015-114.661,230.713-115.275,231.262-115.888z M238.42-66.992h-1.192l-0.679-8.24c0.393-0.091,0.801-0.155,1.224-0.173   l0.053-0.001c0.442,0.019,0.867,0.085,1.271,0.179L238.42-66.992z M237.878-77.941l-0.158,0.001   c-1.771,0.072-3.324,0.663-4.476,1.271c0.019-1.651,0.098-4.024,0.353-6.554c1.134-0.497,2.57-0.943,4.157-1.01   c1.663,0.069,3.16,0.556,4.318,1.08c0,0.038-0.005,0.076-0.002,0.114c0.241,2.46,0.317,4.76,0.334,6.373   C241.245-77.275,239.676-77.868,237.878-77.941z"/><path d="M223.494-109.335c-0.169-0.292-0.444-0.505-0.77-0.592l-9.391-2.521c-0.674-0.177-1.372,0.221-1.554,0.896l-2.082,7.757   l-9.833-8.531c-0.401-0.521-0.832-0.979-1.291-1.37v-2.532c3.318-0.601,5.847-3.505,5.847-6.994c0-2.513-1.312-4.72-3.286-5.986   c1.435-0.676,2.744-1.593,3.202-2.789c0.251-0.655-0.078-1.388-0.731-1.638c-0.654-0.251-1.388,0.078-1.639,0.732   c-0.347,0.908-3.337,2.134-5.809,2.668c-3.379,0.552-5.966,3.482-5.966,7.013c0,3.489,2.526,6.394,5.845,6.994v1.986   c-0.082,0.08-0.155,0.171-0.213,0.271c-7.957,6.047-7.441,32.309-7.354,35.363c0.015,0.512,0.337,0.965,0.814,1.148   c0.148,0.056,0.302,0.083,0.454,0.083c0.34,0,0.675-0.138,0.92-0.396c0.008-0.009,0.29-0.301,0.78-0.706l1.477,11.484h-2.78   c-0.7,0-1.269,0.568-1.269,1.269s0.568,1.268,1.269,1.268h4.222h5.898h4.222c0.7,0,1.269-0.567,1.269-1.268   s-0.568-1.269-1.269-1.269h-2.78l1.422-11.069c0.193,0.176,0.301,0.286,0.306,0.291c0.353,0.372,0.895,0.494,1.373,0.312   c0.478-0.184,0.8-0.637,0.814-1.148c0.066-2.304,0.373-17.808-2.893-27.886l6.248,5.422l-1.393,5.19   c-0.087,0.324-0.041,0.671,0.126,0.962c0.168,0.291,0.445,0.504,0.771,0.592l9.39,2.52c0.109,0.029,0.22,0.043,0.329,0.043   c0.56,0,1.071-0.373,1.226-0.939l4.205-15.67C223.707-108.698,223.662-109.045,223.494-109.335z M192.729-123.222   c0-2.524,2.053-4.578,4.577-4.578s4.579,2.054,4.579,4.578s-2.055,4.578-4.579,4.578S192.729-120.697,192.729-123.222z    M199.139-66.992h-3.666l-1.674-13.023c0.939-0.471,2.035-0.856,3.222-0.951c1.418,0.115,2.709,0.638,3.758,1.227L199.139-66.992z    M197.875-83.415c-0.153-0.066-0.323-0.103-0.5-0.103l-0.2,0.002c-0.051,0.002-0.102,0.005-0.153,0.008   c-0.058-0.003-0.117-0.007-0.177-0.01h-0.139c-0.17,0-0.332,0.033-0.479,0.094c-2.127,0.309-3.951,1.255-5.258,2.141   c-0.003-6.615,0.568-17.574,2.865-24.654l5.35,14.988c0.187,0.519,0.674,0.842,1.195,0.842c0.141,0,0.286-0.024,0.427-0.073   c0.658-0.236,1.004-0.961,0.768-1.621l-6.286-17.608c0.523-0.943,1.104-1.724,1.753-2.288c0.311,0.271,0.604,0.59,0.886,0.952   c0.041,0.07,0.089,0.136,0.144,0.199c4.138,5.661,5.046,20.923,5.041,29.267C201.813-82.156,200.001-83.095,197.875-83.415z    M217.294-94.586l-6.94-1.861l0.745-2.774l1.659,1.44c0.241,0.209,0.537,0.311,0.831,0.311c0.354,0,0.708-0.147,0.959-0.437   c0.459-0.529,0.401-1.33-0.127-1.789l-2.593-2.249l2.072-7.723l6.941,1.861L217.294-94.586z"/><path d="M214.939-105.365l3.058,0.821c0.109,0.029,0.22,0.044,0.329,0.044c0.56,0,1.071-0.374,1.224-0.94   c0.182-0.676-0.219-1.371-0.896-1.553l-3.058-0.821c-0.674-0.182-1.372,0.22-1.554,0.896   C213.861-106.242,214.262-105.547,214.939-105.365z"/><path d="M217.722-103.519l-3.059-0.821c-0.674-0.181-1.372,0.219-1.554,0.896c-0.182,0.676,0.22,1.371,0.896,1.553l3.059,0.821   c0.11,0.03,0.221,0.044,0.33,0.044c0.56,0,1.071-0.373,1.224-0.939C218.8-102.642,218.398-103.337,217.722-103.519z"/><path d="M206.876-120.752c-0.426,0.557-0.32,1.353,0.234,1.778c0.231,0.177,0.502,0.262,0.771,0.262   c0.382,0,0.758-0.171,1.007-0.496c2.483-3.239,0.987-6.06-0.149-7.098c-0.519-0.472-1.32-0.437-1.792,0.081   c-0.473,0.518-0.436,1.319,0.081,1.791C207.093-124.375,208.58-122.973,206.876-120.752z"/><path d="M212.395-116.86c0.229,0.177,0.502,0.262,0.771,0.262c0.38,0,0.758-0.171,1.007-0.496   c3.989-5.205,1.646-9.684-0.151-11.324c-0.514-0.47-1.309-0.434-1.782,0.077s-0.442,1.312,0.064,1.789   c0.354,0.331,3.342,3.367-0.144,7.914C211.734-118.082,211.838-117.286,212.395-116.86z"/></g><text x="0" y="105" fill="#000000" font-size="5px" font-weight="bold" font-family="'Helvetica Neue', Helvetica, Arial-Unicode, Arial, Sans-serif">Created by Klara Zalokar</text><text x="0" y="110" fill="#000000" font-size="5px" font-weight="bold" font-family="'Helvetica Neue', Helvetica, Arial-Unicode, Arial, Sans-serif">from the Noun Project</text></svg>